<?xml version="1.0" encoding="UTF-8"?>
<svg id="Camada_2" data-name="Camada 2" xmlns="http://www.w3.org/2000/svg" viewBox="0 0 225.35 188.94">
  <defs>
    <style>
      .cls-1 {
        fill: #1c323d;
      }
    </style>
  </defs>
  <g id="Layer_1" data-name="Layer 1">
    <g>
      <path class="cls-1" d="M110.95,122.51h-17.9c-1.51,0-2.74-1.23-2.74-2.74v-17.9c0-1.51,1.23-2.74,2.74-2.74h17.9c1.51,0,2.74,1.23,2.74,2.74v17.9c0,1.51-1.23,2.74-2.74,2.74ZM95.79,117.03h12.42v-12.42h-12.42v12.42Z"/>
      <path class="cls-1" d="M99,52.28c-.47,0-.95-.12-1.38-.37l-8.95-5.21c-1.31-.76-1.75-2.44-.99-3.74.76-1.31,2.44-1.75,3.74-.99l7.2,4.19,13.47-12.44c1.11-1.03,2.84-.96,3.87.15,1.03,1.11.96,2.84-.15,3.87l-14.96,13.81c-.52.48-1.19.73-1.86.73Z"/>
      <path class="cls-1" d="M99,84.36c-.47,0-.95-.12-1.38-.37l-8.95-5.21c-1.31-.76-1.75-2.44-.99-3.74.76-1.31,2.44-1.75,3.74-.99l7.2,4.19,13.47-12.44c1.11-1.03,2.84-.96,3.87.15,1.03,1.11.96,2.84-.15,3.87l-14.96,13.81c-.52.48-1.19.73-1.86.73Z"/>
      <path class="cls-1" d="M160.15,52.28h-36.36c-1.51,0-2.74-1.23-2.74-2.74s1.23-2.74,2.74-2.74h36.36c1.51,0,2.74,1.23,2.74,2.74s-1.23,2.74-2.74,2.74Z"/>
      <path class="cls-1" d="M150.35,84.36h-26.56c-1.51,0-2.74-1.23-2.74-2.74s1.23-2.74,2.74-2.74h26.56c1.51,0,2.74,1.23,2.74,2.74s-1.23,2.74-2.74,2.74Z"/>
      <path class="cls-1" d="M150.35,116.43h-26.56c-1.51,0-2.74-1.23-2.74-2.74s1.23-2.74,2.74-2.74h26.56c1.51,0,2.74,1.23,2.74,2.74s-1.23,2.74-2.74,2.74Z"/>
      <path class="cls-1" d="M135.86,5.38h-3.44c.39-.56.63-1.23.63-1.97h0c0-1.88-1.53-3.41-3.41-3.41h-7.36c-1.88,0-3.41,1.53-3.41,3.41h0c0,.73.23,1.41.63,1.97h-3.44c-3.33,0-6.03,2.7-6.03,6.03v7.69c0,3.33,2.7,6.03,6.03,6.03h19.8c3.33,0,6.03-2.7,6.03-6.03v-7.69c0-3.33-2.7-6.03-6.03-6.03ZM134.95,17.03c0,1.59-1.29,2.88-2.88,2.88h-12.23c-1.59,0-2.88-1.29-2.88-2.88v-3.53c0-1.59,1.29-2.88,2.88-2.88h12.23c1.59,0,2.88,1.29,2.88,2.88v3.53Z"/>
      <path class="cls-1" d="M199.37,43.42l8.34-9.77c2.51-2.94,6.93-3.29,9.87-.78l5.31,4.53c2.94,2.51,3.29,6.93.78,9.87l-8.34,9.77c-.65.77-1.81.86-2.57.2l-13.19-11.25c-.77-.65-.86-1.81-.2-2.57Z"/>
      <path class="cls-1" d="M169.08,78.93l24.37-28.56c.65-.77,1.81-.86,2.57-.2l13.19,11.25c.77.65.86,1.81.2,2.57l-24.44,28.64c-.66.77-1.82.86-2.58.2l-13.12-11.34c-.76-.66-.85-1.8-.2-2.57Z"/>
      <path class="cls-1" d="M172.42,66.57l9.83-11.52V11.97h-34.88v7.13c0,.68-.06,1.35-.18,2h25.23v45.46Z"/>
      <path class="cls-1" d="M160.72,107.53l17.89-6.98c1.37-.53,1.67-2.33.55-3.29l-13.81-11.78c-1.12-.95-2.85-.37-3.16,1.06l-4.08,18.76c-.33,1.51,1.16,2.78,2.6,2.22Z"/>
      <rect class="cls-1" x="-2.63" y="86.64" width="38.71" height="10.04" rx="1.24" ry="1.24" transform="translate(-59.91 38.67) rotate(-45)"/>
      <path class="cls-1" d="M180.6,105.65l-8.18,3.19v33.29h-56.45c.36,2.24-.32,4.61-2.04,6.33l-2.81,2.81h71.12v-46.51c-.5.36-1.05.66-1.65.89Z"/>
      <path class="cls-1" d="M79.49,137.38v-17.12s0,0,0,0v-29.21s0,0,0,0V21.11h25.23c-.11-.65-.18-1.32-.18-2v-7.13h-34.88v73.01h-.04v42.53l9.86,9.86Z"/>
      <path class="cls-1" d="M110.06,142l-7.23-7.23c-.71-.71-1.87-.71-2.58,0l-15.56,15.56-46.09-46.09,15.56-15.56c.71-.71.71-1.87,0-2.58l-7.23-7.23c-.71-.71-1.87-.71-2.58,0L3.81,119.41c-.71.71-.71,1.87,0,2.58l7.23,7.23c.71.71,1.87.71,2.58,0l15.56-15.56,46.09,46.09-15.56,15.56c-.71.71-.71,1.87,0,2.58l7.23,7.23c.71.71,1.87.71,2.58,0l40.54-40.54c.71-.71.71-1.87,0-2.58Z"/>
      <rect class="cls-1" x="77.93" y="167.19" width="38.71" height="10.04" rx="1.24" ry="1.24" transform="translate(-93.28 119.23) rotate(-45)"/>
    </g>
  </g>
</svg>