<?xml version="1.0" encoding="UTF-8"?>
<svg id="Camada_2" data-name="Camada 2" xmlns="http://www.w3.org/2000/svg" viewBox="0 0 243.92 199.02">
  <defs>
    <style>
      .cls-1 {
        fill: #1c323d;
      }
    </style>
  </defs>
  <g id="Layer_1" data-name="Layer 1">
    <g>
      <g>
        <path class="cls-1" d="M200.56,33.78H43.36c-1.71,0-3.1-1.39-3.1-3.1h0c0-1.71,1.39-3.1,3.1-3.1h157.2c1.71,0,3.1,1.39,3.1,3.1h0c0,1.71-1.39,3.1-3.1,3.1Z"/>
        <g>
          <g>
            <rect class="cls-1" x="33.05" width="16.8" height="61.3" rx="6.84" ry="6.84"/>
            <rect class="cls-1" x="15.15" y="8.03" width="12.41" height="44.46" rx="5.01" ry="5.01"/>
            <rect class="cls-1" y="16.43" width="9.68" height="27.66" rx="3.49" ry="3.49"/>
          </g>
          <g>
            <path class="cls-1" d="M200.91,0h3.12c3.77,0,6.84,3.06,6.84,6.84v47.62c0,3.77-3.06,6.84-6.84,6.84h-3.12c-3.77,0-6.84-3.06-6.84-6.84V6.84c0-3.77,3.06-6.84,6.84-6.84Z" transform="translate(404.95 61.3) rotate(180)"/>
            <rect class="cls-1" x="216.35" y="8.03" width="12.41" height="44.46" rx="5.01" ry="5.01" transform="translate(445.11 60.52) rotate(180)"/>
            <rect class="cls-1" x="234.24" y="16.43" width="9.68" height="27.66" rx="3.49" ry="3.49" transform="translate(478.16 60.52) rotate(180)"/>
          </g>
        </g>
      </g>
      <path class="cls-1" d="M121.88,54.05c-9.78,0-17.7,7.94-17.7,17.73s7.92,17.73,17.7,17.73,17.7-7.94,17.7-17.73-7.92-17.73-17.7-17.73h0Z"/>
      <path class="cls-1" d="M173.34,165.24c-.52,0-1.03-.15-1.48-.43-.79-.51-1.26-1.38-1.26-2.32l.09-18.45c0-1.51,1.23-2.73,2.74-2.73h.01c1.51,0,2.73,1.24,2.73,2.75l-.07,14.14,8.11-3.76c1.37-.64,3-.04,3.64,1.33.64,1.37.04,3-1.33,3.64l-12.02,5.58c-.37.17-.76.25-1.15.25Z"/>
      <path class="cls-1" d="M143.64,132.8c.7-.7,1.42-1.37,2.16-2.02l7.16-38.75,27.19-37.53c2.41-3.33,1.67-7.99-1.66-10.4l-.65-.47c-3.33-2.41-7.99-1.67-10.4,1.66l-22.99,31.74c-2.38,10.25-11.56,17.92-22.51,17.95-10.99.03-20.25-7.64-22.64-17.93l-23.01-31.75c-2.41-3.33-7.07-4.08-10.4-1.66l-.65.47c-3.33,2.41-4.08,7.07-1.66,10.4l27.21,37.56,13.44,68.94c.17.86.92,1.48,1.79,1.48h25.31c0-11.22,4.37-21.76,12.3-29.69Z"/>
      <path class="cls-1" d="M173.34,199.02c-20.14,0-36.52-16.38-36.52-36.52s16.38-36.52,36.52-36.52,36.52,16.38,36.52,36.52-16.38,36.52-36.52,36.52ZM173.34,131.45c-17.12,0-31.05,13.93-31.05,31.05s13.93,31.05,31.05,31.05,31.05-13.93,31.05-31.05-13.93-31.05-31.05-31.05Z"/>
    </g>
  </g>
</svg>