<?xml version="1.0" encoding="UTF-8"?>
<svg id="Camada_2" data-name="Camada 2" xmlns="http://www.w3.org/2000/svg" viewBox="0 0 418.21 133.04">
  <defs>
    <style>
      .cls-1 {
        fill: #3f3f3f;
      }
    </style>
  </defs>
  <g id="Laag_2" data-name="Laag 2">
    <g>
      <path class="cls-1" d="M247.72,0c17.41,0,32.52,6.29,45.34,18.88,12.82,12.59,19.23,28.2,19.23,46.84s-6.12,34.52-18.35,47.64c-12.24,13.12-27.29,19.67-45.17,19.67s-33.08-6.47-45.61-19.41c-12.53-12.94-18.79-28.35-18.79-46.23,0-9.76,1.76-18.91,5.29-27.44,3.53-8.53,8.23-15.67,14.12-21.44,5.88-5.76,12.64-10.29,20.29-13.59,7.64-3.29,15.53-4.94,23.64-4.94ZM215.6,66.52c0,10.47,3.38,18.97,10.14,25.5,6.76,6.53,14.32,9.79,22.67,9.79s15.88-3.18,22.59-9.53c6.7-6.35,10.06-14.88,10.06-25.58s-3.38-19.29-10.15-25.76c-6.76-6.47-14.32-9.7-22.67-9.7s-15.88,3.26-22.58,9.79c-6.71,6.53-10.06,15.03-10.06,25.5Z"/>
      <path class="cls-1" d="M377.1,35.11c11.76,0,21.55,4.5,29.38,13.5,7.82,9,11.73,19.97,11.73,32.91v31.05c0,2.71-.09,4.74-.27,6.09-.18,1.35-.68,2.85-1.5,4.5-1.65,3.18-6.24,4.76-13.76,4.76-8.35,0-13.17-2.17-14.47-6.53-.71-2-1.06-5-1.06-9v-31.05c0-4.82-1.38-8.59-4.15-11.29-2.77-2.71-6.47-4.06-11.12-4.06s-8.41,1.41-11.29,4.23c-2.88,2.82-4.32,6.53-4.32,11.12v31.23c0,2.71-.09,4.74-.26,6.09-.18,1.35-.74,2.85-1.68,4.5-1.53,3.18-6.06,4.76-13.59,4.76s-11.94-1.59-13.59-4.76c-.82-1.76-1.32-3.32-1.5-4.68-.18-1.35-.26-3.38-.26-6.09v-62.46c0-2.59.09-4.56.26-5.91.18-1.35.73-2.85,1.68-4.5,1.65-2.94,6.18-4.41,13.59-4.41s11.58,1.35,13.23,4.06c.52.89.93,1.86,1.22,2.92.43,1.55,2.34,2.08,3.51.98.07-.07.14-.13.21-.2,1.65-1.53,3.23-2.76,4.76-3.71,4-2.7,8.41-4.06,13.23-4.06Z"/>
      <path class="cls-1" d="M0,121.2V11.84c0-1.18.96-2.13,2.13-2.13h64.54c1.18,0,2.13.96,2.13,2.13v.14c0,1.18-.96,2.13-2.13,2.13H7.08c-1.18,0-2.13.96-2.13,2.13v45.84c0,1.18.96,2.13,2.13,2.13h53.25c1.18,0,2.13.96,2.13,2.13v.14c0,1.18-.96,2.13-2.13,2.13H7.08c-1.18,0-2.13.96-2.13,2.13v50.43c0,1.18-.96,2.13-2.13,2.13h-.67c-1.18,0-2.13-.96-2.13-2.13Z"/>
      <path class="cls-1" d="M92.11,121.2V46.42c0-1.18-.96-2.13-2.13-2.13h-9.32c-1.18,0-2.13-.96-2.13-2.13v-.32c0-1.18.96-2.13,2.13-2.13h14.26c1.18,0,2.13.96,2.13,2.13v79.36c0,1.18-.96,2.13-2.13,2.13h-.67c-1.18,0-2.13-.96-2.13-2.13ZM90.87,13.57v-3.49c0-1.18.96-2.13,2.13-2.13h1.91c1.18,0,2.13.96,2.13,2.13v3.49c0,1.18-.96,2.13-2.13,2.13h-1.91c-1.18,0-2.13-.96-2.13-2.13Z"/>
      <path class="cls-1" d="M152.98,125.1c-6.59,0-11.76-1.94-15.53-5.82-3.77-3.88-5.65-9.23-5.65-16.06v-56.8c0-1.18-.96-2.13-2.13-2.13h-9.32c-1.18,0-2.13-.96-2.13-2.13v-.32c0-1.18.96-2.13,2.13-2.13h9.32c1.18,0,2.13-.96,2.13-2.13v-19.65c0-.9.57-1.71,1.42-2.01l.67-.24c1.39-.5,2.85.53,2.85,2.01v19.89c0,1.18.96,2.13,2.13,2.13h20.79c1.24,0,2.22,1.06,2.13,2.3l-.02.32c-.09,1.11-1.01,1.97-2.13,1.97h-20.77c-1.18,0-2.13.96-2.13,2.13v56.8c0,5.65,1.41,9.97,4.23,12.97,2.82,3,7.35,4.5,13.59,4.5,2.12,0,4.5-.36,7.15-1.09,1.37-.38,2.74.62,2.74,2.05v.05c0,.99-.67,1.84-1.63,2.08-1.18.29-2.44.56-3.76.8-1.94.35-3.97.53-6.09.53Z"/>
    </g>
  </g>
</svg>