<?xml version="1.0" encoding="UTF-8"?>
<svg id="Camada_2" data-name="Camada 2" xmlns="http://www.w3.org/2000/svg" viewBox="0 0 1310.67 1474.95">
  <defs>
    <style>
      .cls-1 {
        fill: #fff;
      }
    </style>
  </defs>
  <g id="_ëîé_5" data-name="—ëîé_5">
    <g>
      <path class="cls-1" d="M811.2,925.95c-.91-.66-1.74-1.57-2.76-1.95-3.05-1.12-5.29-3-6.97-5.8-3.98-6.64-9.52-11.87-15.47-16.71-.32-.26-.41-.8-.88-1.8,2.44.45,4.55.69,6.58,1.24,17.09,4.57,34.36,4.38,51.63,1.56,10.43-1.71,20.85-3.54,31.02-6.74,11.29-3.55,22.42-7.31,32.85-12.98,2.26-1.23,4.71-2.13,7.21-3.25.21,1.47.36,2.5.49,3.53-.49-.09-.96-.17-1.43-.26.45.1.91.2,1.36.29,5.85-2.52,11.68-5.12,17.57-7.55,3.66-1.51,7.23-3.1,10.19-5.96-.63.14-1.27.27-1.9.41l.14.12c-.13-1.55,1.02-1.91,2.12-2.44,13.41-6.57,26.92-12.93,40.16-19.84,8.53-4.45,16.65-9.69,24.94-14.61,1.02-.6,1.89-1.45,3.27-2.52-1.11-.88-1.91-1.66-2.85-2.21-3.12-1.83-6.32-3.51-9.42-5.38-6.2-3.73-12.09-7.81-17.02-13.28-3.2-3.56-7.2-6.4-10.81-9.59-5.59-4.95-11.11-9.99-16.77-14.87-2.61-2.25-4.68-4.79-6.14-7.92-2.49-5.36-6.07-9.7-11.26-12.82-3.06-1.85-5.63-4.52-8.43-6.8-2.65-2.17-4.8-4.74-6.3-7.82-2.77-5.69-6.45-10.71-10.83-15.26-3.4-3.54-5.72-7.74-6.89-12.53-.17-.7-.34-1.4-.41-2.11-.15-1.51,1.51-2.94,2.82-2.34,1.52.7,2.98,1.56,4.42,2.43,2.68,1.63,5.38,3.21,8.54,3.58,1.37-1.16.47-2.21-.07-3.2-3.5-6.42-5.46-13.29-6.78-20.47-2.44-13.29-4.35-26.62-5-40.12-.03-.72.1-1.87-.27-2.08-5.03-2.91-1.61-7.9-3.05-11.59-.53-1.35-1.92.26-2.62,1.11-12.22,14.91-24.43,29.83-36.65,44.75-3.21,3.92-6.62,7.68-9.62,11.75-8.21,11.15-17.82,20.86-28.79,29.3-2.05,1.58-3.62,3.79-5.42,5.71,0,0,.08-.03.08-.03-1.32.51-2.63,1.01-4.04,1.56.14,2.22.74,4.36.26,6.23-.35,1.38-2.11,2.39-2.96,3.26-2.29-.26-4.07-.47-5.69-.65-1.22,2.75,3.59,3.46.84,6.44-1.22-.19-2.76-.43-4.3-.68-.15.46-.52,1.03-.37,1.28.79,1.29,2.93,2.04,1.45,4.16-.81,1.16-.88,1.21-4.84.91-.89,1.74-2.01,3.56-2.79,5.52-1.69,4.21-4.17,8.16-4.61,12.82-3.86,2.98-4.86,7.6-6.69,11.73-1.85,4.19-3.53,8.45-5.24,12.71-1.71,4.25-3.33,8.53-5.03,12.78-1.87,4.67-3.8,9.33-5.73,14.04,1.43,1.32,2.84,2.3,3.82,3.6,2.7,3.61.83,8.05-3.59,8.65-1.4.19-2.85.03-4.7.03-.5,1.05-1.23,2.26-1.69,3.56-1.95,5.45-3.84,10.92-5.73,16.39-9.93,28.72-20.29,57.28-31.49,85.53-.71,1.78-1.52,3.53-2.38,5.25-.17.35-.78.47-1.61.94-2.55-3.4-2.83-7.3-2.41-11.3.4-3.79,1.01-7.56,1.6-11.88-5.82,7.3-15.77,27.99-19.31,39.83-1.3.34-1.81-.46-1.75-1.5.08-1.62.39-3.23.82-6.49-1.65,2.49-2.39,3.6-3.12,4.71-1.45,2.22-2.75,4.55-4.38,6.62-2.12,2.71-2.87,2.67-6.65.36-1.75,2.57-3.95,4.97-5.14,7.79-1.29,3.06-5.63,1.27-6.58,4.45.61.48.97.99,1.3.98,4.33-.15,8.67-.31,12.99-.62,2.14-.16,4.17-.87,6.25.61.8.57,2.32.29,3.48.15,11.02-1.29,22.04-2.59,33.05-3.97,15.31-1.92,30.59-4.07,45.97-5.56,14.65-1.42,29.32-2.6,44-3.49,13.97-.84,27.99-.95,41.94-1.97,21.7-1.58,43.43-.83,65.13-1.51,4.33-.14,8.64-.7,12.96-1.06,2.16-.18,4.32-.45,6.49-.5,6.03-.13,12.06-.2,18.1-.22,1.39,0,2.78.28,5.01.52-1.01,1.17-1.44,2.15-2.11,2.36-5.5,1.76-11.04,3.39-16.61,5.06q-.9,3.23-6.52,6.07c1.16.64,2.15,1.19,2.65,1.47.21,2.27-.99,2.88-2.07,3.18-4.4,1.25-8.85,2.33-13.28,3.48-3.95,1.02-7.9,2.05-11.84,3.08.1,1.57.16,2.72.24,3.97-2.35,2.61-5.75,3.29-8.84,4.54-3.98,1.6-8.41,2.31-11.41,5.82-6.24,2.37-11.52,6.79-18.51,7.69-5.44.7-10.72,2.64-17.09,4.29,2.27,1.1,3.6,1.75,4.97,2.42-.4.61-.57,1.21-.87,1.29-2.1.55-4.2,1.2-6.34,1.43-10.08,1.07-20.16,2.04-30.25,3.01-6.48.62-12.97,1.17-19.46,1.73-1.5.13-2.89.36-3.6,1.93-1.63-.08-3.24-.16-4.86-.24l.02.54c1.6-.09,3.21-.19,4.81-.28,10.59-.46,21.18-.94,31.77-1.34,1.87-.07,3.87-.01,4.57,2.83-3,1.35-6.1,1.49-9.09,1.94-2.14.32-4.31.52-6.48.61-8.46.36-15.99,4.07-24.93,6.35,4.66,2.55,8.65,3.91,13.03,3.83,7.22-.13,14.32-.75,21.46-2.36,17.85-4.02,35.83-7.47,53.81-10.87,20.82-3.94,41.67-7.75,62.57-11.29,16.86-2.85,33.8-5.19,50.7-7.81,6.43-1,12.88-1.92,19.23-3.26,11.6-2.45,23.3-3.74,35.12-4.13,2.89-.09,5.78-.28,8.66-.43l-.12-.04c-.25,1.43-1.26,1.88-2.55,2.07-6.45.91-12.87,2.01-19.34,2.75-6.71.77-13.32,1.86-19.93,3.36-7.98,1.81-16.17,2.71-24.25,4.11-22.56,3.92-45.24,7.26-67.42,13.16-2.05.54-4.08,1.13-6.02,2.14,5.79,1.1,11.32-.76,16.95-1.13,6.01-.4,11.97-1.4,17.95-2.17,5.74-.73,11.49-1.44,17.22-2.27,5.7-.83,11.33-2.17,17.71-2.11-.12,1.32-.22,2.36-.31,3.4,1.58,1.85,3.6,2.02,5.86,1.75,9.82-1.14,19.66-2.2,29.49-3.27,8.16-.89,16.32-1.36,24.54-1.07,5.04.18,10.12-.39,15.17-.78,5.08-.39,10.09-.51,15.05,1.06,1.6.51,3,.92,4.4,2.09,1.54,1.28,3.84,1.65,5.73,2.38.31,2.43-1.54,3-2.84,3.87-2.48,1.67-4.34,3.52-4.89,6.75-.29,1.68-1.98,3.12-3.36,5.12.13.38.39,1.27.77,2.11.59,1.32.21,2.49-.84,3.18-1.6,1.06-3.34,1.92-5.09,2.72-8.32,3.79-16.66,7.54-25.82,11.68,1.58.63,2.46,1.17,3.39,1.31,2.34.36,4.7.53,8.29.91-1.79,1.32-2.59,2.41-3.43,2.45-7.25.3-13.47,3.56-19.19,7.39-8.36,5.6-17.71,7.53-27.31,8.62-18.48,2.1-36.74,5.17-54.78,9.82-9.08,2.34-18.51,3.28-27.77,4.89-5.23.91-10.44,1.9-15.66,2.83-1.46.26-2.83.5-3.35,2.21-.12.41-.54.88-.93,1.02-6.06,2.21-11.48,5.87-18.16,6.77-10.03,1.35-20,3.13-30.02,4.55-8.81,1.25-17.5,3.41-26.16,5.5-3.47.84-6.75,2.52-10.08,3.9-2.89,1.2-5.71,2.56-8.6,3.75-2.7,1.11-5.48,1.48-8.46,1.46-3.33-.02-6.68.68-9.99,1.24-2.04.35-3.49,1.71-4.11,3.68-2.42,7.71-7.06,14.19-11.34,20.87-2.33,3.64-4.77,7.1-6.16,11.36-1.01,3.09-3.53,5.69-5.38,8.51-.87,1.32-1.74,2.65-3.22,4.92,5.45-1.37,9.86-2.38,14.21-3.61,11.86-3.34,23.91-5.74,36.08-7.53,2.84-.42,5.77-.25,8.66-.35l-.06-.19c.11.57.22,1.15.33,1.72-3.4-.67-6.66.11-9.97.83-6.34,1.38-12.76,2.41-19.09,3.81-1.7.38-4.01.51-4.32,3.5.95,0,1.9.18,2.74-.03,8.17-2.01,16.34-4.03,24.48-6.16,2.03-.53,3.97-1.43,5.95-2.15,2.57.03,5.13.06,7.39-1.47l-.06.18c4.99-.85,10.01-1.54,14.96-2.57,15.11-3.15,30.12-6.84,45.31-9.56,15.42-2.76,31-4.7,46.53-6.84,5.97-.83,12.02-1.08,18-1.87,9.41-1.25,18.77-.82,28.12.47.43.06.82.44,1.23.66-.69,4.95-1.29,5.55-13.33,13.06,1.23,1.15,2.42,2.25,3.96,3.69-.74,1.12-1.22,2.68-2.25,3.28-5.25,3.05-6.25,7.54-5.01,13.01.21.91.18,1.87.24,2.63-1.85,1.85-3.92,3.26-5.03,5.21-1.16,2.04-4.33,2.39-4.23,5.49.02.64-1.7,1.56-2.76,1.94-2.25.82-4.6,1.37-8.09,2.37,2.8.6,4.46.96,6.12,1.31.02.27.03.55.05.82-3.14.61-6.29,1.22-9.74,1.89,1.03,1.14,1.77,1.95,2.46,2.72-.69,3.67-6.29,1.61-6.56,5.93,1.11.45,2.17.87,3.24,1.3-.15.39-.22,1.05-.47,1.12-2.08.58-4.21,1.02-6.3,1.58-2.09.56-4.15,1.2-6.59,1.92.25,1.26.47,2.35.72,3.6-2.51.53-5.05,1.07-7.58,1.61-.59,1.84-1.08,3.38-1.5,4.69-.76.35-1.18.72-1.61.72-4.89-.04-9.59.3-13.58,3.77-.92.8-2.73.83-4.12.81-7.58-.08-14.84,1.51-22.02,3.73-2.99.92-6.06,1.82-9.15,2.11-15.68,1.5-30.8,5.68-46.06,9.28-16.66,3.93-33.39,7.58-50.11,11.23-13.43,2.94-26.94,5.51-40.33,8.61-9.37,2.17-18.53,5.31-27.92,7.37-6.24,1.37-8.88,5.5-10.04,10.85-.6,2.76-.86,4.97-3.81,6.25-1.1.47-1.63,2.3-2.36,3.54-4.26,7.29-8.44,14.63-12.77,21.88-3.83,6.42-7.84,12.73-11.75,19.11-.75,1.23-1.41,2.52-1.99,3.58-.53,2.64,3.84,4.83.08,7.31-.7-.15-1.6-.34-2.81-.6-2.97,3.34-3.56,8.34-7.3,11.59-2.45-3.44,2.03-6.74-.25-10.51-3.12,3.3-4.71,7.07-6.71,10.53-2.06,3.55-4.01,7.16-5.87,10.81-1.75,3.44-3.29,6.98-4.99,10.45-1.76,3.57-2.24,7.8-4.98,10.76-2.59-.57-1.94-2.84-3.13-4.6-1.35,2.18-2.53,4.09-3.65,5.89h-2.98c-.38.33-.86.57-1.06.96-.98,1.94-1.83,3.94-2.82,5.87-.55,1.06-1.07,2.53-1.99,2.94-3.83,1.7-5.32,5.46-7.82,8.31-3.47,3.96-6.33,8.47-11.55,10.68-1.56.66-2.62,2.74-3.65,4.34-2.61,4.06-5.04,8.23-7.59,12.33-.63,1.01-1.41,1.93-2.21,2.81-.76.83-2.76.29-2.97-.83-.87-4.76-1.06-9.5-.52-14.38,2.22-19.99,7.97-39.18,12.63-58.63,1.67-6.97,2.59-14.18,3.15-21.34.29-3.76,2.51-7.43.82-11.36-.17-.39.3-1.44.74-1.65,2.1-1.03,2.04-3.2,2.68-4.92,8.87-23.98,17.64-48,26.48-72,2.84-7.71,6.15-15.19,10.19-22.37,2.83-5.04,5.09-10.4,7.71-15.56.86-1.7,1.98-3.3,3.18-4.79.47-.59,1.5-.72,3.01-1.39-8.87,19.36-16.14,38.38-22.91,57.64,1.47-2.66,3.04-5.27,4.39-7.99,9.23-18.62,19.59-36.64,30.78-54.1,10.31-16.08,17.97-33.53,27.71-49.85.34-.58.43-1.31.63-1.97-1.44-1.27-2.46-.11-3.06.67-1.86,2.43-3.49,5.03-5.32,7.74-11.59,2.57-22.81,6.95-34,11.37-11.46,4.53-23.15,8.29-35.07,11.38-1.61.42-3.19.97-5.16,1.57,4.26,4.69,8.99-.28,13.62,1.51-1.06.68-1.82,1.4-2.72,1.71-2.24.78-4.54,1.37-8.3,2.48,4.84,1.29,8.24-.06,12.26.08-.89,1.04-1.19,1.75-1.66,1.9-3.69,1.13-7.43,2.08-11.11,3.24-2.73.86-5.39,1.96-7.92,3.83,1.87-.16,3.75-.39,5.62-.45,2.16-.08,4.32-.02,6.55-.02-2.95,4.6-4.79,6.2-8.32,8.13-4.05,2.21-8.32,3.72-12.72,5.05-6.23,1.89-12.33,4.19-18.53,6.16-11.72,3.73-23.58,6.97-35.63,9.53-7.55,1.6-15,3.63-22.49,5.5-8.65,2.16-17.29,4.36-26.76,6.75-1.93,3.59-4.48,7.68-6.43,12.05-3.73,8.37-7.02,16.93-10.65,25.35-5.84,13.49-11.05,27.27-18.76,39.91-2.76,4.51-4.99,9.3-8.63,13.28-1.59,1.73-2.42,4.15-3.57,6.27-1.81,3.34-2.98,6.95-6.53,9.3-1.82,1.2-2.69,3.92-3.86,6.03-1.75,3.17-3.24,6.49-5.13,9.56-.97,1.57-2.36,3.48-3.94,3.95-2.79.83-3.7,2.83-4.72,5-1.23,2.61-2.24,5.31-5.62,6.1-.93.22-1.49,1.77-2.34,2.57-1.02.96-2.14,1.84-3.29,2.64-1.14.79-2.59,1.22-3.54,2.17-2.14,2.14-4.37,3.57-7.61,3.47-1.26-.04-2.63,1-3.81,1.77-1,.65-1.73,1.69-2.67,2.43-2.5,1.95-4.85,1.38-5.54-1.57-.65-2.78-1.04-5.69-1.04-8.54.02-32.84,8.78-63.88,19.73-94.44,3.01-8.39,5.62-16.96,10.37-24.63.86-1.38,1.23-3.07,2.01-5.08-2.11-.06-2.71,1.31-3.5,2.23-5.52,6.39-11.04,12.79-16.5,19.23-9.58,11.3-21.01,20.6-32.39,29.95-3.54,2.91-7.15,5.75-10.78,8.54-1.3,1-2.77,1.78-4.05,2.59-1.42-1.12-.64-1.93-.14-2.65,1.73-2.46,4.46-4.14,5.8-6.98-2.08-1.25-2.97.37-4.01,1.13-6.63,4.84-13.15,9.81-19.79,14.64-3.7,2.69-7.6,4.81-12.15,6.13-5.76,1.67-11.18,4.49-16.77,6.74-3.08,1.24-5.96,2.6-9.67,1.72-2.35-.56-5.14.69-7.7,1.13-.88-1.06-1.6-1.93-2.43-2.92-.91.19-1.86.31-2.76.59-10.88,3.39-22.24,4.3-33.39,6.25-2.98.52-6.36.17-9.28-.71-5.75-1.74-11.72-3.41-16.84-6.4-9.97-5.82-19.86-11.89-28.27-20.05-4.73-4.59-9.04-9.38-11.55-15.61-4.35-.83-8.57-1.68-12.81-2.44-6.73-1.22-11.52-5.05-14.08-11.25-4.22-10.25-8.39-20.5-9.85-31.69-2.01-15.39-3.31-30.73-.82-46.16,1.97-12.17,5.18-24.04,8.72-35.84,6.04-20.15,14.04-39.53,22.77-58.62,5.23-11.43,11.46-22.32,18.53-32.71.52-.77,1.34-1.33,2.02-1.99l-.17-.16c.86,1.93-.61,3.18-1.43,4.54-9.37,15.71-17.2,32.16-23.84,49.18-.35.89-.5,1.85-.73,2.78-1.14,2.13-2.29,4.25-3.44,6.37-.46,1.53-.92,3.05-1.35,4.62-.19,1.74-.4,3.44-.61,5.13-1.58.7-1.34,2.11-1.35,3.42-.69,1.11-1.38,2.21-2.04,3.34-.02.24-.09.45-.11.67-.02.16.03.34.04.5,0-.46,0-.92-.01-1.39.65-1.11,1.3-2.21,1.94-3.33.44-1.14.88-2.27,1.33-3.4,1.8-1.53,1.28-3.35.65-5.18,2.78-.68,1.62-2.73,1.54-4.4,3.24-1.41,3.63-2.2,3.25-6.5,1.25.19,1.54-.73,1.95-1.6,3.8-8.06,7.38-16.24,11.53-24.12,2.77-5.26,5.24-10.84,10.19-14.73,1.43-1.12,2.18-3.12,3.2-4.75,2.03-3.26,3.77-6.74,6.09-9.77,11.02-14.34,22.18-28.57,33.34-42.8,1.48-1.89,3.08-3.75,4.87-5.34,6.15-5.48,11.23-11.86,16-18.52,4.38-6.11,9.39-11.62,15.29-16.31,1.25-.99,2.21-2.35,3.29-3.51-1.29-2.24-2.93-2.29-4.52-1.48-1.42.73-2.64,1.86-5.12,3.68,1.63-3.67,3.62-5.28,5.3-7.07,1.82-1.93,3.75-3.75,5.68-5.57,1.93-1.82,3.89-3.61,5.86-5.39,1.79-1.62,3.6-3.21,5.4-4.81,1.98-1.76,3.94-3.55,5.96-5.25,2.02-1.7,4.1-3.32,6.46-5.21-.78-1.42-1.59-2.56-2.07-3.82-.86-2.22-.4-4.24.97-5.3,1.41-1.1,3.58-1.12,5.36.11,1.15.79,2.16,1.78,3.17,2.63.95-.4,1.59-.76,2.27-.93,3.2-.8,3.76-4.63,6.97-5.72,3.11-1.06,5.85-3.2,8.76-4.85,2.73-1.54,5.45-3.09,8.22-4.57,2.75-1.47,5.55-2.87,8.5-4.39,2.39-9.62,1.95-19.65,4.38-29.22,1.13-.57,2.18-1.1,3.6-1.81,6.97-25.54,15-51.02,25.49-75.98-1.99-2.44-5-3.45-7.65-4.99-3.94-2.28-5.06-6.17-2.6-9.76.88-1.29,2.47-2.21,3.91-2.99,5.93-3.21,11.89-6.36,17.89-9.43,4.43-2.27,7.9-5.4,9.99-10.01.46-1.01,1.48-1.76,2.25-2.63.24-1.38.47-2.75.71-4.12.66-.58,1.32-1.15,1.98-1.73-.26-1.44.23-2.47,1.61-3.01,0-.31.03-.62.05-.93-.06.33-.13.66-.19.99-.51.99-1.02,1.98-1.53,2.97-.57.63-1.14,1.26-1.71,1.89-2.34.85-.84,2.59-.92,3.96h-3.54c-1.21-1.44-.03-2.66.55-3.84,5.42-11.01,10.87-22.01,16.35-32.99,3.22-6.46,6.49-12.9,9.77-19.34,1.85-3.63,3.44-7.4,6.32-10.45,1.11-1.18,1.63-2.92,2.36-4.43,7.92-16.48,15.38-33.21,23.86-49.41,12.39-23.67,25.49-46.96,38.34-70.38,1.15-2.09,2.6-4.02,4.07-5.91.74-.94,1.84-1.56,3.15-.81l-.18-.16c-4.7,6.03-7.82,12.97-11.26,19.71-.48.93-.28,2.21-.4,3.32-.58.21-1.26.29-1.69.66-.83.72-1.53,1.6-2.27,2.41.05.34.08.67.12,1.01,0-.35,0-.7,0-1.06,2.14,0,3-1.49,3.68-3.18.34-.33.75-.62,1.01-1.01,9.66-14.15,19.38-28.26,28.93-42.49,2.81-4.19,5.14-8.71,7.85-13.35-.74-2.39-1.5-4.87-2.64-8.57-1.04,4.15-1.77,7.07-2.6,10.4-1.44-.33-2.55-.5-3.6-.86-1.12-.38-2.18-.94-3.21-1.39-1.48-2.5-1.38-5.22-1.42-7.83-.23-13.03-.71-26.07-.41-39.09.9-38.13,2.28-76.25,1.9-114.4-.11-10.85.82-21.7,1.23-32.56.1-2.64.01-5.28.01-7.92-1.64-.59-2.14.67-2.72,1.63-3.8,6.42-7.65,12.76-9.92,20.02-1.34,4.3-4.08,8.18-6.21,12.23-7.97,15.16-15.95,30.31-23.9,45.48-1.1,2.1-2.11,4.26-3.23,6.52-1.38-.68-2.36-1.16-3.6-1.77-1.64,2.75-3.25,5.41-4.81,8.1-8.11,13.99-16.12,28.03-24.35,41.95-3.11,5.26-7.23,9.57-13.45,11.07-4.25,6.22-8.82,12.07-15.06,16.4-.75.52-1.36,1.35-1.85,2.16-3.12,5.14-6.19,10.32-9.35,15.62,1.15,2.55,3.41,4.07,5.2,5.94,10.27,10.73,18.95,22.52,24.6,36.37,4.95,12.15,8.05,24.74,9.26,37.82,1.13,12.28,1.7,24.57.63,36.88-1.51,17.52-6.53,34.06-14.31,49.79-8.36,16.9-17.88,33.12-28.25,48.85-.79,1.21-1.67,2.37-2.61,3.46-24.4,28.48-50.92,54.82-79.59,79-2.39,2.02-4.92,3.9-7.53,5.64-18.85,12.62-37.75,25.17-56.61,37.79-14.67,9.82-30.41,17.75-45.79,26.33-16.93,9.44-34.74,16.76-52.97,23.18-2.27.8-4.51,1.72-6.76,2.57-4.6,1.73-8.08,4.39-8.03,9.94-4.66,1.43-7.55,4.25-8.51,9.02-.26,1.27-1.35,2.54-2.39,3.45-2.41,2.11-4.38,4.33-5.12,7.63-.26,1.18-1.63,2.55-2.81,3-2.91,1.11-5.97,1.84-9.02,2.53-2.05.46-4.18.59-6.03.84-2.49-1.28-4.74-2.59-7.11-3.61-1.97-.85-3.13-2.23-3.55-4.23-.5-2.36-.99-4.73-1.26-7.12-.76-6.67-1.41-13.34-2.15-20.56-3.19-.45-6.41.79-9.68.92-3.61.15-7.21.66-10.82.96-3.37.27-6.75.39-10.11.72-3.33.32-6.64.81-11.05,1.36,1.1-1.43,1.44-2.36,2.04-2.57,3.56-1.3,7.19-2.43,11.1-3.72-.67-.58-.97-1.05-1.21-1.03-5.72.69-10.96-.82-16.03-3.33-6.3-3.11-12.93-5.23-19.87-6.45-2.82-.5-5.56-1.41-8.35-2.13-.72-2.35-1.78-4.36-1.85-6.41-.09-2.52-1.17-4.1-3.09-5.3-4.58-2.88-7.93-7.03-11.37-11.06-2.81-3.31-5.46-6.76-8.11-10.19-.95-1.23-1.27-2.59.51-4.16,1.77.76,3.83,1.39,5.64,2.46,15.68,9.27,32.88,10.51,50.44,9.51,12.16-.69,23.78-3.81,34.8-9.08,4.78-2.29,9.53-4.67,14.4-6.77,3.18-1.37,4.82-3.72,5.77-6.88,1.88-6.24,3.87-12.44,5.82-18.65,9.88-31.54,19.77-63.06,31.28-94.07,8.14-21.95,16.51-43.79,25.64-65.35,9.14-21.57,19.64-42.47,30.52-63.21,6.95-13.24,13.29-26.8,19.8-40.27,6.62-13.7,13.77-27.1,21.73-40.07,1.64-2.67,3.09-5.46,4.54-8.24.66-1.28,1.33-2.62,1.62-4.01,1.14-5.43,1.61-7.85-5.33-9.35-5.31-1.14-9.71-4.2-14.37-6.67-3.54-1.88-4.22-4.17-3.04-7.88.44-1.38,1.16-2.67,1.52-4.06.67-2.57,2.38-4.15,4.64-5.24,2.17-1.05,4.32-2.19,6.59-2.97,7.74-2.68,15.5-5.34,23.33-7.76,2.97-.92,6.12-1.45,9.23-1.67,3.77-.26,6.37-1.66,7.78-5.31.77-2.01,1.93-3.89,3.03-5.75,1.53-2.59,3.71-4.37,7.11-5,1.88,1.56,3.83,3.26,6.63,3.57,1.32.14,2.59,1.21,3.79,2,3.02,1.98,6.08,3.92,8.96,6.1,1.85,1.4,3.4,3.2,6.21,5.9,31.37,5.26,60.34,19.14,85.2,42.13,2.97-3.21,3.39-7.13,4.73-10.58,1.3-3.33,2.33-6.77,3.53-10.28-1.42-.56-2.45-.97-3.47-1.37-.14-.45-.49-.94-.38-1.29,6.42-19.72,12.95-39.4,19.27-59.15,1-3.11,1.08-6.52,1.69-10.39-1.72.18-3.07-.08-3.79.48-1.09.85-1.73,2.28-2.58,3.45-.71.98-1.27,2.55-2.18,2.8-4.98,1.37-6.57,6.05-9.57,9.33-1.46,1.6-2.91,3.25-4.12,5.04-1.39,2.06-3.26,2.68-5.53,2.5-2.9,2.15-3.36,6.51-7.6,8.06-.19-1.02-.72-1.99-.44-2.61,1.85-4.19,3.83-8.31,5.84-12.43,3.38-6.94,6.81-13.86,10.2-20.79.74-1.52,1.63-3.08.51-4.77-1.39-2.12-.84-4.11.15-6.15,2.11-4.33,3.95-8.82,6.34-13,7.35-12.82,12.78-26.49,18.29-40.13.07-.17-.1-.43-.28-1.11-2.39,1.9-3.39,4.54-4.81,6.81-1.67,2.66-3.06,5.49-4.79,8.1-1.51,2.29-2.25,5.29-5.16,6.45-1.25-1.32-.71-2.39-.08-3.45,1.84-3.12,3.75-6.19,5.48-9.37.67-1.23.95-2.67,1.4-4.02.36-.25.87-.43,1.03-.77.09-.2-.37-.66-.58-1.01-.14.19-.4.37-.41.57-.03.45.07.9.11,1.35-2.32.24-2.85,2.37-3.81,3.87-7.89,12.41-15.67,24.89-23.51,37.34-2.95,4.69-5.92,9.38-8.98,14.01-.4.61-1.35.86-2.4,1.49q.65-4.52,3.09-8.08c-.09-.53-.18-1.07-.27-1.6.07.55.14,1.09.2,1.64-.87.18-2.07.08-2.54.61-1.26,1.44-2.26,3.11-3.25,4.76-4.24,7.02-8.43,14.06-12.65,21.09-1.48,2.46-2.99,4.91-4.79,7.86-1.14-.89-1.97-1.55-2.89-2.26-.18.08-.74.15-.95.45-2.72,3.98-5.34,8.02-8.09,11.97-1.05,1.51-1.87,3.5-4.68,3.35-.1-.81-.49-1.76-.26-2.52.41-1.36,1.08-2.68,1.82-3.9,12.42-20.4,23.5-41.54,34.92-62.5,4.15-7.62,8.57-15.1,13.13-22.48,16.73-27.11,31.58-55.23,45.45-83.9,4.51-9.32,9.47-18.44,14.57-27.45,9.97-17.62,20.19-35.11,30.28-52.66.35-.61.53-1.32.82-2.07-.28-.64-.55-1.28-.86-1.91-2.72-5.65-1.47-11.74,3.3-15.45.67-.52,1.76-.69,2.66-.69,1.64,0,3.27.25,5.29.43,1.53-2.6,3.06-5.02,4.41-7.54,5.12-9.55,10.18-19.13,15.29-28.69.34-.63.84-1.17,1.26-1.75,2.97-4.13,5.11-8.66,6.48-13.55,0,0-.23.25-.23.25,2.48-1.31,3.72-3.66,5-5.97,4.56-8.21,9.11-16.43,13.7-24.62,3.65-6.51,7.34-13.01,11.03-19.5,3.7-6.49,7.68-12.84,10.04-19.98.68-2.04,1.99-3.19,3.98-4.27,5.16,3.5,9.45.9,13.58-2.3,2.45-1.9,2.73-3.17,1.67-6.26-.23-.68-.7-1.28-.87-1.97-.47-1.84,1.77-3.85,3.61-3.18,1.12.41,2.14,1.09,3.2,1.64,8.15,4.25,15.52,9.69,22.96,15.03,3.76,2.7,6.82,6.09,9.45,9.87,3.8,5.46,5.77,12.27,11.78,15.21.3,3.72-1.76,6.54.11,9.39,1.75,1.23,3.03-.33,4.53-.83,3.47-1.15,6.64-.67,9.3,2.03,3.64,3.7,3.44,9.45-.66,12.77-3.13,2.53-6.42,4.93-10.71,4.58-.24,1.13-.52,1.83-.52,2.53.05,15.73-3.03,31.14-4.84,46.67-1,8.61-2.42,17.17-3.49,25.78-.26,2.11-.42,4.45.23,6.4,1.21,3.61.73,6.55-1.75,9.35-.39.44-.23,1.38-.31,2.1-.17.4-.35.8-.53,1.19.19-.04.56-.1.55-.12-.05-.4-.13-.8-.21-1.19,1.7.65,2.57-.88,3.81-1.44,3.88-1.74,5.68-1.28,7.94,2.12.53.8.82,1.76,1.35,2.55,1.31,1.95,3.33,1.92,4.57-.26,4.77-8.39,9.59-16.76,14.09-25.3,11.37-21.57,23.08-42.93,36.1-63.56,7.47-11.84,14.36-24.03,21.59-36.02,4.24-7.03,8.61-13.97,13-20.91.7-1.1,1.83-1.93,3.63-3.77-.18,2.38.04,3.64-.4,4.6-1.52,3.28-3.27,6.45-4.93,9.67-4.98,9.65-10,19.28-14.93,28.95-1.06,2.09-2.42,4.15-2.16,7.28,4.34-2.3,4.77-7.86,9.53-9.94.41,4-1.99,6.32-3.26,9.02-1.2,2.56-3.1,4.79-3.91,8.62,2.88-1.87,4.03-4.15,5.61-6,1.72-2.02,3.34-4.13,5.02-6.18,1.53-1.87,3.09-3.71,4.63-5.57,1.69-2.05,3.41-4.07,5.03-6.17,1.62-2.1,3.13-4.29,4.72-6.42,1.59-2.13,3.2-4.24,4.81-6.35,1.46-1.93,2.9-3.86,4.37-5.78,1.61-2.11,3.26-4.2,4.84-6.33,1.58-2.13,3.06-4.34,4.68-6.44,1.62-2.1,3.38-4.09,5.04-6.17,1.5-1.89,2.97-3.81,4.41-5.74,1.58-2.13,3.05-4.35,4.68-6.44,1.53-1.97,2.38-4.68,5.6-5.58.68,3.83-2.06,6.02-3.26,8.74-1.14,2.57-3.01,4.83-3.84,8.75,4.19-2.44,6.42-5.46,8.91-8.19,2.76-3.03,5.47-6.13,8.28-9.11,2.65-2.81,5.41-5.51,8.11-8.28,2.87-2.94,5.78-5.83,8.55-8.85,2.61-2.85,5.07-5.83,7.57-8.77,2.66-3.13,5.28-6.29,7.95-9.41,2.51-2.93,5.12-5.79,7.59-8.76,2.63-3.15,5.14-6.39,7.71-9.59,2.36-2.93,4.25-6.28,7.46-9.11.51,1.12,1.15,1.85.98,2.24-1.16,2.64-2.36,5.27-3.77,7.78-3.9,6.94-7.97,13.79-11.83,20.76-1.15,2.08-1.9,4.4-2.7,6.67-.3.85-.64,2.22-.22,2.7,3,3.45.82,6.55-.86,9.25-9.34,14.95-16.85,30.93-26.55,45.69-10.07,15.32-19.45,31.09-29.12,46.67-.24.39-.34.88-.53,1.4,1.51,1,2.04-.5,2.79-1.17,3.23-2.88,6.38-5.85,9.64-8.69.32-.27,1.33.06,1.9.35.28.14.46.87.36,1.25-.23.93-.55,1.86-1,2.7-1.02,1.92-2.17,3.76-3.22,5.66-7.93,14.35-15.85,28.7-23.81,43.14.91,1.27,1.71,2.39,2.77,3.87-2.69,6.86-7.61,12.64-10.97,19.17,1.1,1.57,2.41,1.05,3.08.21,3.17-3.94,6.24-7.97,9.2-12.07,2.19-3.05,4.5-5.59,8.74-5.37,1.07.05,2.19-.76,3.26-1.24,1.54-.67,3.04-1.95,4.59-1.99,3.97-.12,6.81-2.23,9.55-4.59,4.57-3.93,9.1-7.92,13.5-12.03,12.96-12.09,27.34-22.19,42.83-30.74,1.03-.57,2.48-1.45,3.31-1.12,4.13,1.64,7.54-.89,11.18-1.7,4.4-.98,8.49-1.1,12.72.7,1.91.81,4.18,1.07,6.29,1.07,14.96,0,29.92-.19,44.88-.19,6.78,0,13.46,1.05,20.03,2.71,2.46.62,4.7.5,7.05-1.43.89,1.33,1.43,2.72,2.44,3.5,1.09.83,2.6,1.16,3.96,1.58,10.38,3.23,19.01,9.39,27.01,16.45,8.36,7.38,15.51,15.83,21.13,25.56,2.84,4.92,4.46,10.11,5.01,15.7.14,1.44.29,2.87.48,4.7,2.39.18,4.68.34,6.84.5,4.46,6.82,4.41,7-3.63,12.85-1.44,2.98,1.5,4.93,1.69,8.07-1.8,2.38-2.33,5.61-2.84,8.95-.81,5.22-1.88,10.46-3.46,15.5-3.17,10.12-6.69,20.13-10.23,30.12-.87,2.47-2.41,4.69-3.59,7.06-2.37,4.75-4.85,9.44-6.99,14.29-2.15,4.86-3.5,9.93-3.96,15.33-.77,9.17-2.75,18.21-6.3,26.69-7.08,16.91-14.31,33.78-22.14,50.35-6.1,12.92-14.86,24.28-23.53,35.58-4.99,6.5-10.36,12.74-15.78,18.89-2.86,3.24-6.14,6.13-9.37,9.03-1.83,1.65-1.96,1.51-6.12,1.02-3.48,1.84-5.38,5.94-9.16,7.59-2.6-2.89,2.13-4.74.28-7.66-.72.34-1.66.52-2.22,1.08-2.2,2.24-4.37,4.51-6.37,6.92-3.06,3.68-6,7.12-10.65,9.31-3.5,1.65-6,5.46-8.88,8.37-4.57,4.61-9.08,9.28-14,14.32-1.11-1.18-1.85-1.97-2.92-3.1-15.82,12.3-32.55,22.79-52.55,27.62-19.56,4.73-39.07,4.72-59.22,1.78.84,8.66,3.36,15.9,7.84,22.22,4.95,6.97,8.33,14.64,11.72,22.38,3.28,7.52,6.89,14.89,10.45,22.28,3.9,8.07,7,16.41,8.99,25.16,2.2,9.68,5.97,18.84,9.46,28.1.24.64.74,1.19,1.14,1.82,2.6-.78,3.75-3.08,5.21-4.9,9.81-12.25,19.7-24.43,29.21-36.91,14.2-18.62,28.09-37.47,42.19-56.16,1.23-1.63,1.99-4,4.95-4.12,1.63,4.63-3.28,7.69-3.04,12.46,5.02-4.97,7.9-10.73,10.58-16.6,2.1-4.61,3.95-9.34,6.16-13.89,2.84-5.86,5.86-11.63,8.97-17.35,1.4-2.58,2.77-4.99,2.4-8.13-.16-1.34.27-2.91.9-4.14,1.72-3.34,5.12-3.84,7.77-1.26.86.84,1.6,1.81,2.3,2.79,1.73,2.39,3.86,4.21,6.59,5.48,3.57,1.66,6.11,4.52,8.56,7.6,4.56,5.73,8.28,11.77,9.71,19.07.43,2.18,1.37,4.3,3.86,4.78,5.89,1.12,7.86,5.87,8.2,10.57.59,8.1,1.97,16.35-.92,24.41-.71,1.97-.55,4.25-.91,7.42,1.6-1.24,2.56-1.78,3.25-2.56,2.73-3.03,5.37-6.14,8.11-9.29,1.67,2.36-1.84,3.37-.66,5.73,1.74-1.77,3.48-3.38,5.04-5.15,11.56-13.14,25.14-23.96,39.15-34.29,3.5-2.58,7.07-5.05,10.55-7.65,8.35-6.25,17.24-11.49,26.95-15.37,2.28-.91,5.28-1.12,6.33-4.1,2.01.38,2.45-.59,2.02-2.31.58.24,1.13.45,1.68.67.03-.09.07-.18.1-.26-.58-.14-1.15-.27-1.73-.41-.64.82-1.29,1.64-1.93,2.46-.94.07-1.99-.11-2.8.24-7.51,3.27-15.07,6.47-22.45,10.02-11.77,5.65-22.83,12.54-33.44,20.14-1.28.91-2.62,1.74-4.62,1.79,1.45-1.38,2.83-2.85,4.37-4.11,8.79-7.21,18.21-13.45,28.33-18.69,14.38-7.45,28.83-14.73,44.64-18.58,10.76-2.62,21.66-4.66,32.56-6.64,2.74-.5,5.78-.07,8.55.51,3.52.74,6.95,1.98,10.37,3.16,2.73.94,5.28,2.24,8.31.77.95-.46,2.42-.19,3.55.13,16.52,4.68,32.63,10.31,46.67,20.63,4.93,3.63,9.24,7.89,12.25,13.15,3.46,6.05,6.39,12.42,9.33,18.76.89,1.93,1.37,4.17,1.52,6.3.93,13.38-.16,26.51-5.52,39.01-2.75,6.43-5.62,12.81-8.36,19.25-5.36,12.58-13.3,23.48-22.01,33.86-3.74,4.46-7.98,8.43-13.83,10.11-.92.26-1.96.96-2.75.75-4.96-1.33-10.11.16-14.99-1.02-4.19-1.01-8.24-2.66-12.3-4.18-2.09-.79-3.7-2.17-4.23-4.58-.19-.87-.74-2.12-1.41-2.35-3.61-1.25-4.68-3.75-4.39-7.33.06-.74-.87-1.66-1.52-2.33-.83-.86-1.93-1.47-2.75-2.34-2.17-2.31-2.89-4.87-1.35-7.92,3.7-7.32,7.24-14.71,10.97-22.02,2.52-4.94,5.22-9.78,7.89-14.64,1.04-1.9,2.06-3.84,3.36-5.57,3.28-4.35,3.18-8.89,1.15-13.63-.38-.88-.88-1.72-1.33-2.57-2.98-5.52-5.86-11.09-8.99-16.52-1.67-2.9-3.59-5.71-5.73-8.29-1.65-1.99-4-2.4-6.6-1.59-10.13,3.14-19.18,7.87-25.41,16.88-1.23,1.78-2.74,3.39-3.88,5.23-4.08,6.61-9.04,12.5-14.43,18.06-9.61,9.91-17.68,21.04-25.54,32.34-4.54,6.54-8.86,13.23-13.24,19.88-.93,1.41-1.79,2.88-2.47,4.42-5.93,13.46-12.1,26.82-16.93,40.74-1.92,5.52-2.94,11.19-3.78,16.92-.64,4.38.21,8.68,1.19,12.91,3.79,16.31,12.33,29.72,24.91,40.66,3.7,3.22,7.72,5.74,12.68,6.54,6.18.99,12.34,2.19,18.54,3.03,5.5.75,11.03,1.22,16.57,1.62,2.37.17,4.8.01,7.16-.31,2.8-.38,5.25.24,7.49,1.83.3.22.31.85.61,1.75-1.28.77-2.72,1.51-4.02,2.43-2.09,1.49-3.16,3.45-2.2,6.14-3,2.66-7.24,2.3-10.85,4.61.84.84,1.37,1.59,2.09,2.06,2.82,1.85,5.64,3.72,8.57,5.4,6.3,3.62,12.18,7.81,17.71,12.51,3.33,2.83,6.99,5.02,11.12,6.62,4.48,1.73,8.71,4.11,13.06,6.18,5.61,2.68,9.81,6.99,13.4,11.88,1.68,2.29,3.02,4.95,3.96,7.63,1.4,4.01,1.46,8.02-1.55,11.61-.89,1.06-1.73,2.49-1.85,3.82-.31,3.47-2.41,5.71-4.71,7.86-5.12,4.79-10.56,9.17-16.73,12.58-1.27.7-2.57,1.36-3.75,2.18-12.89,8.99-27.11,15.73-40.51,23.86-1.24.75-2.69,1.3-3.64,2.33-2.38,2.58-5.48,3.88-8.49,5.38-10.8,5.37-21.66,10.61-32.38,16.12-5.85,3-11.98,5.09-18.3,6.69-4.71,1.19-9.18,2.88-13.52,5.04-9.33,4.65-19.1,7.96-29.41,9.77-5.21.91-10.37,2.24-15.47,3.68-11.66,3.29-23.58,5-35.6,6.1-4.26.39-8.53.75-12.83-.95-2.02-.8-4.76-.1-7.12.31-6.5,1.11-12.94,1.32-19.39-.29-1.84-.46-3.74-.39-5.19-2.12-.65-.77-2.16-.87-3.3-1.17-9.09-2.38-18.19-4.71-27.28-7.12-1.08-.28-2.07-.89-3.44-1.49,1.32-.99,2.21-1.66,3.18-2.39-3.82-2.6-8.82-2.77-11.99-6.35l-.19.2c1.07-.19,2.15-.39,3.22-.58,0-.21,0-.43-.01-.64-1.08-.14-2.16-.29-3.25-.43l.25.17ZM423.45,779c-.27.11-.54.23-.8.34.02-.22.05-.44.07-.67.31.07.61.15.89.23l-.68-.81c.19-.07.39-.13.58-.2-.02.37-.04.74-.07,1.11ZM405.94,404.69c2.35.71,3.11-1.45,4.43-2.57.6-1.6.7-3.18-.21-4.71,1.24-.03,2.46-.01,3.3-1.24.33-.48.97-.76,1.44-1.12-.69-.31-1.06-.63-.01-.97-.05.35-.09.7-.14,1.04-1.51.77-3.01,1.54-4.47,2.37.09,1.6.18,3.21.27,4.81-.82.25-1.7.38-2.44.77-.8.42-1.47,1.08-2.19,1.65.04.42.04.85.15,1.26.06.22.31.39.47.58-.02-.22,0-.45-.08-.66-.15-.42-.34-.82-.52-1.23ZM318.98,974.41c-1.33,1.31-2.56,2.74-3.99,3.92-5.74,4.72-11.56,9.35-17.3,14.07-.77.63-1.29,1.55-3.01,3.69,4.26-1.58,6.92-2.51,9.53-3.58.86-.35,1.66-.98,2.34-1.63,4.16-3.98,8.29-7.99,12.42-12,1.53-1.48,1.15-2.97,0-4.46q3.57.45,4.38-1.75c-1.43.57-2.9,1.15-4.36,1.73ZM604.96,1142.34c10.59-2.14,21.15-4.45,31.77-6.38,16.79-3.06,33.62-5.86,50.43-8.8.88-.15,1.99-.03,2.26-1.4-1.72-1.52-4.04-2.76-5.07-4.7-1.49-2.8-4.8-.64-6.31-3.26.73-.96,1.54-2.02,2.34-3.05-1.34-2.75-.92-6.37-4.33-7.93-.35-.16-.76-.84-.69-1.19.64-3.29-2.48-5.03-3.27-7.56,1.23-2.52,2.92-3.95,5.45-4.66,8.1-2.26,16.14-4.72,24.22-7.04,11.32-3.25,22.65-6.43,33.97-9.65,1.1-.31,2.44-.41,2.46-2.04.69.1,1.39.27,2.08.25.22,0,.43-.51.65-.79-.22-.04-.48-.17-.67-.11-.66.23-1.29.52-1.94.79-3.11.38-6.22.74-9.33,1.15-3.52.47-7.03,1.1-10.7.39.62-2.31,1.67-3.72,3.79-4.22,1.64-.38,3.23-1.01,4.87-1.4,12.2-2.89,24.41-5.77,36.63-8.58,2.12-.49,4.35-.6,5.71-2.64,1.66-2.49,3.69-4.87,3.12-8.86-6.11,1.3-11.72,2.57-17.36,3.67-6.39,1.24-12.77,2.58-19.21,3.44-15.55,2.09-31.03,4.38-46.24,8.42-9.32,2.48-18.74,4.63-28.22,6.36-11.85,2.17-23.81,3.72-35.71,5.62-10.5,1.67-20.8,4.11-30.81,7.8-2.48.91-4.17,2.23-5.19,4.57-.38.88-.81,1.75-1.24,2.62-8.04,15.94-16.09,31.88-24.11,47.83-.49.98-.71,2.11-1.29,3.91,7.79-1.24,14.9-2.29,21.98-3.51,7.28-1.26,14.49-3.13,22.17-2.26-.91,1.33-1.54,2.25-2.19,3.17h-3.02c0,.08,0,.16,0,.24,1-.07,2-.14,3-.21ZM271.85,777.84c.17.18.34.36.5.55-1.77,1.93-3.39,4.03-5.34,5.75-3.26,2.87-6.75,5.47-10.11,8.22-1.38,1.13-2.66,2.37-4.38,3.92,1.15,0,1.68.16,2-.03,2.7-1.59,5.43-3.14,8.02-4.89,16.62-11.28,31.41-24.83,46.55-37.92.55-.47,1.14-.94,1.53-1.52.4-.59,1.7-1.13.2-2.26-2.25,1.75-4.54,3.49-6.79,5.29-2.26,1.81-4.46,3.69-6.73,5.49-2.17,1.72-4.14,3.81-7.2,4.15.79-1.43,1.83-2.56,2.97-3.57,15.82-14.16,32.29-27.58,47.58-42.35,10.28-9.93,18.37-21.1,22.25-34.96,2.82-10.07,3.76-20.43,3.24-30.84-.38-7.58-3.06-14.62-7.12-21.04-1-1.59-2.46-2.97-3.93-4.17-6.8-5.54-14.89-7.71-23.4-8.65-1.38-.15-2.82.18-4.31.3-.86,1.64-1.65,3.12-2.4,4.61-5.19,10.34-10.3,20.73-15.58,31.03-6.71,13.1-13.83,25.99-20.26,39.22-8.23,16.92-15.89,34.11-23.91,51.13-7.61,16.15-15.4,32.21-23.01,48.36-.85,1.8-2.64,3.54-1.62,6.01,2.73-.21,4.39-2.11,6.25-3.51,6.94-5.23,13.78-10.58,20.71-15.82,1.31-.99,2.86-1.67,4.3-2.5ZM693.73,507.15c.22.32.44.64.66.96.12-.27.24-.55.37-.82-.39.01-.77.02-1.16.03-.36-.8-.51-1.86-1.13-2.36-6.43-5.22-11.51-11.66-16.76-17.97-9.3-11.19-13.63-24.4-14.94-38.52-1.14-12.22-.71-24.55.1-36.86-.75,1.74-1.54,3.5-1.82,5.33-.8,5.24-1.41,10.51-2.05,15.77-.2,1.62.16,3.43-1.81,4.29-1.9-1.27-1.94-3.32-1.9-5.2.12-5.54.46-11.08.68-16.62.06-1.54,0-3.08,0-5.71-1.36,1.73-2.12,2.59-2.75,3.54-4.63,7.07-9.18,14.19-13.86,21.22-7.64,11.45-15.33,22.86-23.06,34.24-2.86,4.22-5.96,8.34-10.84,10.38-4.02,1.68-6.6,4.61-8.78,8.22-5.73,9.5-11.6,18.93-17.42,28.38-4.32,7.02-8.94,13.73-17.29,16.56-.64.22-1.14.81-1.97,1.43-.17,3.46-.16,7.08-.59,10.64-.36,3.02,1.46,7.09-3.5,8.35-.48.12-.71,1.69-.84,2.62-.5,3.56-.91,7.13-1.35,10.64q-4.31-.11-6.57,2.47c3.79,2.26,6.81,1.14,9.36-2.1,1.04-1.33,2.06-2.68,3.13-3.98,2.77-3.34,5.58-6.65,8.35-9.99.55-.66,1.01-1.4,1.51-2.11-.5-.32-.8-.58-.85-.53-1.65,1.37-3.27,2.78-4.91,4.16-.7.59-1.39,1.43-2.33.32.14-.47.14-1.03.42-1.35,6.78-7.72,14.6-14.04,24.27-17.8,2.35-.91,4.92-2.59,6.99.79.34.55,1.78.6,2.71.6,5.35-.02,9.3,2.69,12.12,6.83,4.21,6.19,10.12,10.09,16.38,13.81,4.79,2.85,9.42,6.45,10.49,12.3,1.73,9.44,4.53,18.88,1.72,28.74,2.84,2.5,3.76,5.68,4.08,9.1.25,2.73,1.19,5.2,3.08,7.19,1.94,2.04,2.75,4.44,2.91,7.2.07,1.17.44,2.38.92,3.47,2.7,6.15,2.94,12.62,2.64,19.17-.09,1.92-.62,3.99-.11,5.75,1.12,3.86.67,7.68.42,11.51-.37,5.54-.96,11.06-1.57,16.58-2.15,19.19-4.49,38.36-6.48,57.57-.85,8.15-1.68,16.4-1.33,24.56.57,13.06-.82,26.05-.66,39.08.02,1.41.04,3.24-.76,4.17-2.77,3.25-2.56,7.2-3.05,10.95-.44,3.37-.41,6.74-3.49,9.13-.62.48-.78,1.71-.92,2.62-.21,1.43-.32,2.89-.3,4.33.04,2.88-2.4,2.24-4.46,3.06,0,3.9.04,7.99-.01,12.08-.06,4.1-.22,8.2-.33,12.31-.1,4.1-.31,8.2-.25,12.29.11,7.03.02,8.05-2.12,11.96-1.65-2.78-1.82-5.7-2.6-8.34-.82-2.76-.61-5.84-2.78-8.87-.26,9.87-.45,18.96.6,28.15,1.24,10.76,1.18,21.68,1.62,32.53.09,2.16-.02,4.34-.22,6.5-.05.52-.81.98-1.46,1.71-.39-.92-.82-1.5-.87-2.1-.55-7.22-1.01-14.44-1.57-21.66-.11-1.39-.07-3.19-.89-4.06-1.89-2.01-1.86-4.36-2.06-6.74-.24-2.89-.42-5.78-.67-8.66-.25-2.89-.58-5.76-.83-8.65-.23-2.7,0-5.45-1.07-8.12-.79,1.06-1.26,2.12-1.38,3.23-.23,2.16-.22,4.34-.42,6.5-.08.81.06,2.03-1.85,1.75-.47-2.67-.97-5.46-1.5-8.46-1.31,3.42-2.47,6.71-3.82,9.92-3.34,7.93-4.57,16.19-4.28,24.75.08,2.41-.01,4.84-.33,7.22-.12.92-1.08,1.73-1.8,2.79-.51-.9-.93-1.32-.94-1.73-.06-3.12-.03-6.25-.03-9.4-1.68.61-2.94,1.44-4.2,1.45-3.71.05-5.11,2.31-5.62,5.43-.78,4.75-1.35,9.54-2.14,14.28-.19,1.12-.87,2.17-1.97,4.8-.38-8.49-.67-15.2-1-22.65-.36,1.38-.68,2.05-.69,2.72-.06,4.92-1.3,9.49-3.5,13.9-1.61,3.23-2.79,6.68-4,10.09-.64,1.79-1.26,3.7-1.32,5.57-.07,2.36-.75,3.87-2.66,5.48-2.75,2.31-4.74,5.4-4.65,9.35.07,3.28-.92,6.15-3.34,8.5-1.44,1.4-2.11,3.17-2.17,5.21-.03.94-.16,2.01-.63,2.79-.44.74-1.41,1.68-2.11,1.65-1.05-.05-2.66-.63-2.98-1.42-.81-1.96-1.34-4.15-1.44-6.27-.76-14.94-2.04-29.87-1.58-44.86.37-12.06.48-24.14.49-36.21.03-21.49-.2-42.98,1.53-64.42.05-.67-.2-1.36-.38-2.44-1.25.08-2.43-.03-3.5.26-5.59,1.49-11.18,3.03-16.73,4.67-9.26,2.73-18.58,5.16-28.04,7.12-7.77,1.61-15.41,3.94-23.02,6.24-5.49,1.67-9.62,4.93-12.01,10.55-2.89,6.78-5.45,9.68-11.6,15.21-.69.62-2.09.44-3.38.67-.45-3.65-.84-6.87-1.44-11.79-2.02,4.28-3.32,7.04-4.64,9.79-1.35,2.83-2.58,5.74-4.11,8.47-1.45,2.59-1.45,6.08-4.98,8.27.28-6.17,2.46-11.29,3.55-16.67-.03-.37-.06-.74-.09-1.11.02.41.04.81.06,1.22-2.63.24-2.66,2.67-3.13,4.28-2.53,8.66-7.24,16.3-11.14,24.31-1.43,2.93-3.34,5.63-5.55,9.27-.23-3.26.5-5.28,1.01-7.33q.64-2.6-.14-6.26c-5.94,9.38-11.68,18.43-17.39,27.45-2.05-1.07.5-4.27-2.94-4.59-2.04,3.02-4.51,6.07-4.84,10.03-.46,5.52-2.87,10.14-5.81,14.62-.62.94-1.78,1.77-.86,3.38,3.45.18,7.02.39,10.6.55,5.59.24,10.86,1.54,16.13,3.58,5.81,2.25,11.95,3.78,18.07,5.03,3.17.65,6.3,2.43,9.9,1.62.71-3.2-.32-5.44-2.81-6.95-2.35-1.42-3.72-3.48-5.27-5.69-2.16-3.05-5.18-5.63-8.22-7.88-3.47-2.57-7.33-4.62-11.09-6.78-1.25-.72-1.74-1.59-1.38-2.89.39-1.45,1.65-1.51,2.87-1.61,3.35-.28,6.69-.68,10.05-.86,1.66-.09,3.36.09,5.01.34,3.55.54,7.08,1.74,10.61,1.69,3.9-.06,7.05,1.06,10.04,3.29,12.19,9.08,24.27,18.23,35.06,29.07,6.37,6.4,12.13,13.12,16.55,20.91,6.98,12.3,11.5,25.45,12.24,39.71.42,8.19.84,16.38,1.15,24.58.31,8.22-.11,16.38-1.73,24.49-.84,4.25-1.19,8.6-1.71,12.91-.08.63.14,1.29.24,1.99,2.39-.59,2.85-2.67,3.67-4.32,3.64-7.34,7.12-14.76,10.75-22.11,4.39-8.87,10.01-17.03,14.98-25.56,9.33-16.01,20.83-30.74,28.47-47.76.09-.19.37-.3.56-.45,3.89-1.34,6.07,2.18,9.2,3.45,4.54-2.52,8.62-5.66,10.83-10.29,3.59-7.53,9.82-13.08,14.21-20.01,3-4.74,7.77-6.06,13.58-4.52.3,2.2.58,4.26.84,6.2,3.51,2.13,6.92,2.38,9.84,1.66,4.47-12.93,8.73-25.22,12.98-37.51.24-.68.54-1.35.74-2.04,4.54-16.03,10.25-31.65,16.72-47,1.13-2.67,1.78-5.39,2.25-8.29,1.43-8.76,3.06-17.46,6.85-25.69,5.14-11.16,9.87-22.54,14.36-33.98,3.7-9.42,6.81-19.07,10.18-28.61.98-2.77,1.47-5.53.7-8.49-2.05-7.94-3.78-15.96-5.99-23.85-4.57-16.25-9.73-32.34-13.97-48.67-4.05-15.63-7.69-31.4-10.7-47.26-3.92-20.61-9.36-40.92-12.01-61.77-1.16-9.09-2.82-18.13-3.62-27.25-1.2-13.69-1.85-27.43-2.69-41.16-.09-1.43-.08-2.91.19-4.31.17-.83.95-1.54,1.54-2.43,7.07,2.47,5.95,9.97,9.51,14.93,1.82-2.43,1.18-4.91,1.43-7.2.16-1.4,0-3.6.79-4.04,3.04-1.73,2.3-4.44,2.54-6.98.18-1.87.55-3.72.83-5.51,4.35-1.62,7.92-.94,11.32,1.43,1.36.95,2.98,2.53,4.3,2.36,4.05-.5,6.25,1.9,8.57,4.37,1.43,1.52,3.07,2.3,5.18,1.56ZM273.13,1163.55c.22,1.7-.56,2.64-1.18,3.59-2.23,3.44-4.6,6.8-6.72,10.3-8.91,14.71-15.6,30.49-21.93,46.42-1.86,4.69-3.77,9.56-4.38,14.51-1.11,9.04-4.71,17.59-4.8,26.78,0,.69-.33,1.42-.66,2.06-1.16,2.3-.99,4.68-.44,7.07.6,2.61,1.13,5.3.16,7.84-.87,2.27-.45,4.23.41,6.26,1.49,3.51,2.99,7.02,4.43,10.39-2.08,2.78-4.93,1.19-7.86,1.5.72,2.73,1.07,5.13,2,7.28,1.53,3.58,4.09,5.92,8.42,5.36,1.43-.19,2.92.05,4.32-.24,7.79-1.61,15.64-3.02,23.3-5.09,7.48-2.03,14.27-5.59,20.51-10.4,6.89-5.32,13.57-10.74,19.57-17.12,10.24-10.9,21.35-20.93,31.1-32.35,8.15-9.54,16.83-18.61,24.26-28.77,1.68-2.29,3.99-4.12,5.96-6.21.63-.67,1.7-1.78,1.51-2.21-1.27-2.88.8-4.55,2.07-6.49,7.93-12.11,15.99-24.14,23.8-36.33,2.98-4.64,5.46-9.45,6.06-15.28.48-4.7,2.01-9.72,5.84-12.88,1.98-1.64,3.27-3.35,4.26-5.5,1.63-3.5,3.49-6.93,4.72-10.57,3-8.9,5.72-17.9,8.5-26.88.34-1.09.34-2.29.52-3.6-5.04.88-3.43,6.48-7.13,8.84.21-1.77.2-2.97.5-4.1,1.98-7.52,2.53-15.21,3.13-22.91.61-7.84-.63-15.33-3.27-22.66-1.18-3.3-2.3-4.16-5.9-3.91-4.57.32-9.11.73-13.5,2.36-5.42,2.02-10.96,3.71-16.44,5.54-10.68,3.56-20.57,8.53-28,17.22-2.65,3.1-5.59,5.24-9.37,6.4-2.84.87-5.08,2.59-7.3,4.52-9.29,8.07-18.69,16.01-28.02,24.03-1.64,1.41-3.19,2.95-4.67,4.53-4.29,4.59-8.55,9.19-12.76,13.85-11.06,12.25-20.43,25.67-27.62,40.55-.49,1.02-2.04,2.19-.62,3.67,2.77-1.91,3.72-5.55,7.24-7.38ZM733.24,442.34c1.59-.44,3.45-.78,5.17-1.46,2.92-1.15,5.7-2.62,8.62-3.75,8.21-3.18,15.42-7.86,21.99-13.7,5.07-4.5,10.62-8.31,17.3-10.21,1.57-.45,3.17-1.29,4.39-2.36,7.99-6.99,16.26-13.72,23.66-21.29,5.31-5.44,11.13-9.91,17.49-13.88,1.6-1,3.24-2.1,4.5-3.48,5.2-5.71,10.35-11.47,15.35-17.36,11.25-13.27,22-26.97,31.45-41.55,8.13-12.54,15.29-25.71,22.79-38.66.67-1.16,1.31-3.06.82-4.05-1.09-2.18-.13-3.68.74-5.37,4.3-8.37,8.67-16.71,12.87-25.12,1.94-3.88,4-7.78,5.21-11.91,2.43-8.33,4.36-16.81,6.4-25.25.87-3.59.47-7.2-.48-10.75-.97-3.64-3.19-5.79-7-6.33-6.27-.9-12.54-.74-18.76.22-18.49,2.86-34.95,10.71-50.56,20.63-.81.52-1.62,1.08-2.31,1.75-5.7,5.56-11.58,10.96-17,16.79-9.69,10.44-19.07,21.16-26.98,33.08-4.8,7.24-9.68,14.43-14.79,21.45-13.53,18.6-24.31,38.86-35.73,58.74-1.68,2.92-3.1,6-4.52,9.07-8.34,18.03-14.62,36.78-18.89,56.16-2.13,9.65-3.5,19.46-5.21,29.2-.63,3.58.24,6.64,3.48,9.4ZM502.86,776.9c17.62-4.76,34.22-7.5,50.2-12.84.25-1.72.54-3.13.64-4.56.82-12.04,1.51-24.09,2.44-36.12.65-8.42,1.54-16.82,2.48-25.21,1.07-9.59,2.34-19.15,3.42-28.73.14-1.27.78-2.85-1.18-4.17-2.79,4.6-6.95,8.25-8.92,13.48.87.33,1.44.55,2.25.86-7.75,12.35-17.18,23.45-23.2,36.63.64.46,1.08.67,1.36,1,.27.32.39.78.66,1.36-10.43,18.58-21.49,36.98-30.14,58.3ZM617.86,287.82c.4.06.8.13,1.2.19,8.43-15.67,16.86-31.35,25.28-47.03.11-.21.25-.45.24-.68-.04-.8-.14-1.61-.25-2.82-2.06,1-3.52,1.8-5.05,2.43-3.07,1.25-4.36.87-6.89-1.74-.57-.59-1.2-1.1-1.84-1.68-.59.75-1.05,1.09-1.14,1.5-3.72,15.69-7.41,31.39-11.09,47.09-.21.89-.31,1.82-.45,2.73ZM725.22,526.51c-3.94-2.02-7.85-3.85-11.57-5.99-3.69-2.12-7.2-4.55-11.58-7.36.85,3.41,2.52,5.47,3.64,7.76,2.96,6.05,7,10.49,14.95,9.37,1.15-.95,2.71-2.25,4.56-3.78ZM190.6,1307.35c-3.02-4.22-3.22-9.95-7.83-13.44.53,5.97,2.19,10.91,7.83,13.44ZM642.6,991.71c1.17-3.63,3.13-6.35,3.17-9.58-1.34-1.23-2.53-1.66-3.92-.73-.75,3.14-2.18,6.3.75,10.31ZM291.43,999.53q-4.23,2.34-3.08,4.45c1.11-1.6,2.09-3.02,3.08-4.45ZM908.3,648.15c.25,0,.49.02.74.02v-5.32c-.17,0-.33-.02-.5-.02-.08,1.77-.16,3.55-.24,5.32ZM728.99,527.68c-.94,2.14-.3,3.41,1.65,4.48.66-1.97.5-3.41-1.65-4.48ZM929.96,1036.84c-.48-.26-.71-.49-.85-.44-.43.13-.83.36-1.24.55.6-.03,1.2-.06,2.09-.11ZM589.37,1145.47c-.18-.12-.36-.32-.55-.35-.21-.02-.44.12-.67.18.18.12.36.33.55.35.21.02.44-.12.67-.19ZM582.84,1146.5c-.21.06-.42.12-.63.18.28.14.54.33.84.41.1.03.27-.22.41-.35-.21-.08-.41-.16-.62-.24ZM595.08,1144.12l.49-.2-.51-.17v.37ZM430.48,379.28l.22.56.26-.56h-.48Z"/>
      <path class="cls-1" d="M165.08,227.23c-1-3.22-1.84-6.49-3.01-9.64-4.9-13.18-7.8-26.84-10.19-40.65-1.39-8.07-3.2-16.07-4.84-24.1-.63-3.07-1.48-6.1-1.96-9.19-.43-2.74,1.36-4.68,4.17-4.64,1.66.03,3.34.39,4.95.82,1.85.49,3.63,1.21,5.44,1.82,2.18-2.51,2.43-5.44,2.46-8.31.03-3.61-.27-7.23-.45-10.84-.44-8.43-.97-16.86-1.31-25.3-.17-4.2.39-4.8,4.52-6.12,2.07-.66,4.16-1.27,6.27-1.75,6.37-1.45,12.54-3.45,18.49-6.17,3.58-1.64,7.28-2.3,11.27-1.48,2.09.43,4.32.33,6.47.19,4.28-.29,8.02.9,11.64,3.16,2.84,1.78,6.01,3,8.99,4.57,2.33,1.22,4.65,2.49,6.86,3.92,1.81,1.17,3.31,2.89,5.21,3.88,4.27,2.24,6.12,6.04,7.17,10.37,1.52,6.33,2.93,12.69,4.27,19.06,2.63,12.51,4.65,25.18,7.91,37.52,3.44,13.03,6.64,26.16,11.17,38.9,2.66,7.49,4.87,15.14,7.18,22.74,2.39,7.86,3.05,16.06,4.51,24.1.98,5.44,2.27,10.82,4.82,16.45,2.89-3.07,3.56-6.51,3.86-9.95.51-5.82,2.51-11.2,4.02-17.11,8.15-2.04,16.05-4.16,24.01-5.99,19.03-4.38,38.13-8.47,57.13-12.99,17.35-4.13,34.58-8.79,51.91-12.98,9.14-2.21,18.39-3.96,27.61-5.81,1.51-.3,3.14-.04,4.91.77-1.98.69-3.94,1.44-5.94,2.05-17.77,5.36-35.61,10.42-53.65,14.87-20.58,5.07-40.82,11.57-61.21,17.43-6.02,1.73-12.07,3.38-18.1,5.11-2.06.59-4.08,1.29-5.98,2.82,1.02,0,2.08.19,3.04-.03,31.97-7.29,63.9-14.74,95.9-21.88,12-2.68,24.16-4.61,36.24-6.92,4.2-.8,8.38-1.74,13.17-2.74-1.82,5.9-3.27,11.17-5.1,16.31-1.29,3.62-2.66,7.12-3.37,10.99-.53,2.88-2.88,5.42-4.79,8.75.03.18.1,1.13.33,2.03.55,2.14-.1,4.16-1.82,5.1-6.92,3.8-12.7,9.24-20.42,12.06-16.15,5.9-32.81,9.68-49.36,14.02-15.62,4.09-31.15,8.55-46.69,12.93-8.82,2.49-17.59,5.12-26.37,7.75-5.52,1.66-5.5,1.71-9.28,5.69,2.09,7.43,4.24,15.04,6.36,22.67,4.07,14.63,8.03,29.3,12.23,43.9,3,10.42,6.23,20.78,9.56,31.11,2.22,6.88,4.81,13.65,7.18,20.49.63,1.82,1.14,3.7,1.51,5.59.61,3.13.64,6.24-.97,9.16-.46.84-.94,1.72-1.18,2.64-1.56,6.1-5.08,10.19-11.32,11.9-3.15.86-5.24,3.34-7.27,5.77-6.21,7.42-14.75,9.59-23.82,10.47-3.85.37-7.24-.84-9.69-3.85-3.22-3.96-7.29-6.2-12.27-6.98-3-.47-5.31-2.2-7.36-4.32-.67-.69-1.33-1.4-1.96-2.13-7.6-8.86-13.74-18.62-17.76-29.6-2.66-7.24-5.02-14.59-7.53-21.88-.78-2.28-1.49-4.6-2.44-6.81-4.6-10.65-8.24-21.63-11.72-32.67-.57-1.8-1.39-3.51-2.86-5.08.13,1.12.16,2.27.41,3.37,1,4.47,2.26,8.89,3.03,13.39.6,3.55.98,7.21.8,10.79-.35,6.83.53,13.47,2.03,20.09,2.86,12.62-2.52,26.24-12.99,33.66-4.55,3.22-9.16,6-14.6,7.69-6.3,1.95-12.37,1.53-18.55.21-2.82-.6-5.65-1.39-8.3-2.49-2.42-1-4.94-2.18-6.84-3.91-6.31-5.76-11.58-12.25-13.37-20.98-.58-2.82-1.48-5.6-2.5-8.3-4.01-10.6-8.11-21.17-12.21-31.74-.34-.88-.87-1.7-1.49-2.89-4.31.03-8.44,1.32-12.57,2.39-3.26.85-6.48,1.95-9.58,3.26-8.39,3.55-16.92,3.47-25.54,1.28-10.75-2.74-18.99-9.19-25.7-17.77-2.42-3.1-3.66-6.75-4.51-10.56-1.27-5.64-2.71-11.25-3.89-16.91-2.11-10.14-.11-19.65,4.8-28.62,1.25-2.29,3.56-3.48,5.97-3.65,5.5-.39,10.09-2.98,14.89-5.26,4.13-1.96,8.53-3.32,12.77-5.05,3.08-1.26,6.42-2.04,9.2-4.63-.25-1.37-.33-2.81-.77-4.14-3.1-9.39-6.41-18.71-9.4-28.13-2.92-9.19-5.71-18.43-8.23-27.73-.94-3.45-1.07-7.15-1.34-10.75-.17-2.26.44-4.34,3.39-5.38,1.55.91,3.37,1.98,5.35,3.14,1.74-1.98,2.4-4.58,4.33-6.49,1.29-1.28,1.35-4,1.58-6.11.64-5.75,1.06-11.53,1.63-17.29.14-1.43.36-2.89.8-4.25,1.46-4.5,3.05-5.74,7.94-5.26,3.75.37,6.56-.88,9.05-3.45,2.91-2.99,6.36-5.07,10.35-6.4,8.15-2.73,16.06-.4,21.11,6.56,3.15,4.35,5.37,9.19,6.51,14.43,2.5,11.45,7.89,21.73,12.86,32.17.65,1.37.82,3.41,3,3.61.16.45.33.89.5,1.33-.21-.39-.43-.78-.64-1.16ZM263.57,266.96c-.3-1.11-.52-2.25-.9-3.33-4.89-13.87-9.93-27.7-14.69-41.62-7.34-21.46-14.32-43.02-18.74-65.32-3-15.14-6.16-30.25-9.33-45.36-.59-2.82-1.28-5.68-2.41-8.31-2.24-5.25-7.29-7.26-12.51-5.13-8.43,3.44-15.56,8.69-21.15,15.92-.64.82-.88,1.96-1.59,3.62,4.47-1.08,8.12-2.16,11.84-2.8,3.97-.68,7.4-3.56,11.93-3.01.71,2.12,1.46,4.13,2.05,6.19,10.9,37.79,23.42,75.06,36.71,112.06,3.5,9.74,7.88,19.18,12.06,28.66,1.43,3.25,3.05,6.52,6.74,8.43ZM120.45,193.01c1.85,3.65,3.11,5.94,4.2,8.31,5.67,12.29,9.83,25.15,14.08,37.97,4.86,14.65,9.43,29.4,14.52,43.97,2.54,7.27,5.8,14.29,9.01,21.3,1.47,3.21,3.29,6.36,7.01,9.32-.43-1.8-.56-2.68-.85-3.5-2.15-6.14-4.51-12.22-6.46-18.42-4.05-12.87-7.65-25.87-11.14-38.92-5.17-19.32-11.56-38.31-17.5-57.42-.78-2.52-1.89-4.96-2.99-7.37-2.53-5.55-3.26-5.61-8.67-2.73-3.76,2-5.88,4.71-6.21,9-.3,3.84-.97,7.65-1.39,11.49-.09.78.19,1.59.47,3.63,3.17-5.44,2.68-10.86,5.92-16.62Z"/>
      <path class="cls-1" d="M1143.19,368.43c-.55.32-1.4.53-1.59.99-.89,2.24-1.57,4.55-2.39,6.82-3.17,8.85-6.37,17.69-9.54,26.54-1.46,4.09-2.86,8.2-4.29,12.29-2.64,7.51-4.84,15.2-8.03,22.47-4.47,10.17-10.2,19.69-17.96,27.81-2.2,2.3-4.64,4.09-7.95,4.65-4.64.79-8.66,2.83-11.69,6.62-2.8,3.5-6.63,4.92-10.95,4.29-8.69-1.28-17.12-3.35-23-10.7-2.48-3.11-5.5-5.4-9.31-6.57-3.99-1.23-6.1-4.07-8.03-7.69-4.22-7.9-3.82-15.45-.77-23.65,4.79-12.87,9-25.97,13.15-39.07,2.18-6.89,3.61-14.01,5.58-20.97,3.41-12.06,7-24.07,10.47-36.12,1.6-5.55,3.11-11.13,4.65-16.7.61-2.2.16-3.83-1.85-4.95-2.08-1.16-4.32-2.15-6.6-2.85-8.29-2.55-16.64-4.93-24.95-7.43-2.27-.68-4.48-1.59-6.91-2.47-.71-17.52-1.4-34.8-2.11-52.39.66-.98,1.86-.58,3.02-.32,6.12,1.35,12.23,2.73,18.36,4.03,1.29.27,2.64.25,4.02,0-8.29-4-17.5-5.09-26.23-8.53v-6.24c1.51-1.33,2.99-.77,4.31-.46,12.21,2.83,24.38,5.82,36.59,8.59,4.03.92,6.29,2.91,6.75,7.2.41,3.81,1.42,7.56,2.17,11.33.64,3.24,1.28,6.47,3.49,9.92.79-1.28,1.48-1.97,1.68-2.78,1.6-6.55,3.71-13.05,4.5-19.71.94-7.97,3.01-15.62,5.03-23.29,1.71-6.51,4.24-12.8,6.41-19.19.7-2.05,1.58-4.06,2.1-6.16,4.11-16.61,9.53-32.87,12.52-49.78,1.98-11.16,4.62-22.19,7.02-33.27.56-2.59,1.24-5.16,2.07-7.68.93-2.82,2.64-5.07,5.23-6.71,2.23-1.41,4.27-3.13,6.39-4.72.58-.43,1.09-1,1.72-1.31,6.22-3.14,12.44-6.27,18.71-9.31,1.05-.51,2.32-.75,3.5-.8,4.82-.21,9.64-.43,14.46-.35,1.87.03,3.85.56,5.56,1.33,7.3,3.28,14.96,5.37,22.67,7.36,1.86.48,3.73,1.01,5.51,1.72,1.42.57,2.26,1.77,2.34,3.36.05.96.04,1.93-.02,2.89-.65,9.87-1.23,19.75-2.03,29.6-.37,4.63.02,9.04,2.08,13.66,1.57-.36,2.94-.62,4.28-.98,1.86-.5,3.66-1.32,5.55-1.56,3.47-.44,5.44,1.6,5.02,5.2-.3,2.62-.79,5.27-1.55,7.79-2.66,8.81-4.03,17.88-5.48,26.92-2.18,13.61-5.24,26.98-10.26,39.86-1.3,3.35-2.57,6.71-3.83,10.06.1.31.18.62.26.93-.02-.35-.04-.7-.06-1.05,1.84-.54,2.54-2.15,3.24-3.65,5.12-10.9,10.76-21.55,13.53-33.45,1.02-4.38,3.25-8.53,5.27-12.62,2.78-5.6,7.85-8.35,13.67-9.78,1.57-.39,3.41-.35,4.97.07,4.91,1.31,9.75,2.92,13.34,6.83,2.97,3.23,6.36,5.02,10.93,4.04,3.12-.67,5.18,1.01,6.14,3.79.85,2.48,1.5,5.1,1.8,7.7.66,5.75,1.05,11.53,1.54,17.3.18,2.16.3,4.12,2.49,5.64,1.39.97,2,3.08,3.17,5.03,1.89-1.1,3.68-2.13,5.24-3.03,2.59.68,3.61,2.26,3.53,4.36-.12,3.12-.25,6.28-.85,9.33-2.06,10.43-5.33,20.51-8.85,30.53-3.67,10.43-7.06,20.96-10.56,31.39,2.41,2.6,5.27,3.31,7.92,4.35,6.95,2.73,14,5.17,20.63,8.71,2.47,1.32,5.5,1.7,8.32,2.21,3.63.65,5.95,2.52,7.65,5.85,3.16,6.18,4.21,12.81,4.57,19.55.15,2.81-.77,5.7-1.37,8.51-.81,3.77-2.12,7.45-2.62,11.25-1.08,8.27-4.76,14.89-10.74,20.72-10.6,10.34-23.13,14.35-37.63,12.71-2.36-.27-4.76-.89-6.96-1.79-7.4-3-15.04-5.02-23.25-6.37-.62,1.25-1.33,2.46-1.83,3.74-3.95,10.1-7.94,20.19-11.75,30.35-1.35,3.6-2.26,7.37-3.36,11.07-2.56,8.65-7.87,15.32-14.9,20.75-14.71,6.96-28.35,9.17-43.04-1.01-1.58-1.1-3.23-2.12-4.75-3.3-3.89-3-6.81-6.78-8.69-11.33-.46-1.11-.71-2.31-1.21-3.41-3.04-6.66-3.04-13.35-1.13-20.4,1.18-4.36,1.76-9.08,1.52-13.59-.44-8.33,1.03-16.32,2.87-24.32.48-2.1.8-4.24,1.19-6.37.31-.58.66-1.14.93-1.74.07-.16-.08-.43-.12-.65-.3.18-.85.35-.86.54-.02.66.14,1.32.23,1.98ZM1177.21,126.17c-1.21-2.39-1.63-3.77-2.48-4.82-5.57-6.9-12.58-11.9-20.76-15.24-4.73-1.93-9.92.05-12.12,4.71-1.01,2.15-1.62,4.54-2.12,6.88-2.43,11.3-4.81,22.62-7.13,33.95-3.38,16.52-6.49,33.14-11.82,49.16-7.9,23.77-16.2,47.41-24.31,71.12-.48,1.4-.71,2.88-1.35,5.52,3.87-3.6,5.66-7.05,7.15-10.55,4.83-11.29,9.94-22.5,14.03-34.06,12.7-35.89,24.87-71.95,35.31-108.58.5-1.76.59-3.83,2.48-4.7,7.31,2.09,14.45,4.13,23.09,6.6ZM1245.69,216.91c-.83-5.45-1.55-10.92-2.55-16.34-.29-1.55-1.04-3.46-2.22-4.32-2.63-1.92-5.23-4.22-9.2-4.51-.99,1.64-2.21,3.15-2.9,4.87-1.89,4.68-3.95,9.35-5.26,14.21-5.59,20.68-13.32,40.7-18.11,61.66-3.64,15.92-8.76,31.55-14.89,46.77-.27.68-1.26,1.56.27,2.43,3.69-3.54,6.1-8.01,8.02-12.62,3.78-9.11,7.39-18.31,10.6-27.64,6.42-18.67,12.36-37.51,18.82-56.17,2.43-7.03,5.72-13.78,8.72-20.61.39-.89,1.42-1.51,2.26-2.36,2.94,4.96,1.92,10.84,6.46,14.63Z"/>
      <path class="cls-1" d="M577.96,1361.02c-1.3,8.24-9.77,11.95-16.95,5.93-.4-.99-1.05-2.28-1.45-3.64-1.21-4.11.26-7.76,4.05-9.55,2.35-1.11,4.81-2.21,7.75-1.67,2.87,2.05,5.1,4.77,6.6,8.94Z"/>
      <path class="cls-1" d="M721.74,1392.06c-3.31-5.09-1.61-9.4.91-13.28,1.65-2.55,6.99-2.94,10.08-1.44,3.08,1.5,4.82,5.54,3.99,9.28-.69,3.1-3.78,5.55-7.42,5.86-.48.04-.96.01-1.44-.02-1.91-.12-3.83-.25-6.11-.4Z"/>
      <path class="cls-1" d="M485.29,124.55c-2.48-4.77-2.48-5.37-.12-14.77,3.31-1.17,6.26-.62,9.21,1.59,3.25,2.44,2.75,8.43-1.2,10.28-2.55,1.19-5.3,1.96-7.89,2.9Z"/>
      <path class="cls-1" d="M612.81,1286c.99-5.26,4.33-8.01,8.84-10.3,1.47.87,3.05,1.82,4.54,2.71.29,1.34.56,2.48.79,3.63.9,4.56-2.54,8.02-6.92,6.77-2.45-.7-4.77-1.83-7.25-2.81Z"/>
      <path class="cls-1" d="M661.56,1462.55c-2.58.76-4.81-.17-7.09-.71-2.14-.5-3.24-2.03-3.58-3.98-.36-2.11,1.42-5.01,3.18-5.91,2.34-1.2,4.59-1.02,6.77.35,1.52.95,2.5,2.26,2.12,4.15-.41,2.06-.94,4.1-1.41,6.1Z"/>
      <path class="cls-1" d="M668.7,1463.31c3.26-.02,5.47,2.05,5.56,5.22.1,3.32-2.95,6.41-6.34,6.41-2.9,0-5.59-2.67-5.49-5.46.14-4,2.32-6.15,6.27-6.18Z"/>
      <path class="cls-1" d="M586.87,1371.5c.24-.63.63-1.98,1.25-3.22.29-.58.94-1.09,1.55-1.38,2.25-1.07,5.94.37,7.41,2.8,1.23,2.03.19,5.37-2.11,6.74-.41.24-.82.48-1.26.67-4.19,1.76-7.01-.23-6.85-5.61Z"/>
      <path class="cls-1" d="M719.99,1452.65c-3.09-.49-5.69-.99-5.48-5.12,1.58-1.52,3.33-3.4,5.29-5.04,1.64-1.37,3.83-.77,5.62,1.24,1.47,1.66,1.65,3.65.04,5.07-1.74,1.53-3.79,2.69-5.47,3.85Z"/>
      <path class="cls-1" d="M216.23,1051.14c-.1-2.23,2.59-4.77,5.22-4.92,2.45-.14,4.9,2.41,4.87,5.07-.02,1.99-2.52,4.45-4.67,4.59-2.27.15-5.31-2.51-5.41-4.74Z"/>
      <path class="cls-1" d="M656.51,1403.71c-1.32-.7-2.18-1.12-3.01-1.59-2.92-1.63-2.13-5.55.52-7.09,1.6-.93,3.22-.98,4.87-.48,2.65.8,3.54,4.45,1.51,6.4-1.02.98-2.33,1.66-3.89,2.75Z"/>
      <path class="cls-1" d="M488.75,200.22c-2.82-1.16-3.71-3.7-4.83-6.08.67-2.27,2.55-2.68,4.51-2.71,2.6-.03,4.92,1.7,5.37,3.94.5,2.47-1.44,3.33-3.08,4.29-.6.35-1.36.4-1.97.56Z"/>
      <path class="cls-1" d="M727.68,1361.22c2.36-.18,4.67,2.3,4.86,5.22.15,2.37-1.34,3.92-3.95,4.11-2.46.18-4.06-1.51-4.36-4.62-.22-2.25,1.47-4.56,3.45-4.71Z"/>
      <path class="cls-1" d="M513.25,604.85c-.12-.89-.66-2.01-.31-2.63,4.23-7.5,8.02-15.29,13.73-21.85.59-.68,1.3-1.24,2.44-2.33-2.61,6.55-9.91,18.52-16.06,26.63.02.02.2.18.2.18Z"/>
      <path class="cls-1" d="M570.05,1335.04c4.27-.14,6.15,1.6,6.96,4.67.5,1.89-.92,4.03-2.69,4.26-2.4.3-4.76-1.02-4.83-2.99-.06-1.82.32-3.66.55-5.94Z"/>
      <path class="cls-1" d="M285.28,965.08c.05,2.53-1.04,3.93-3.18,4.3-1.95.34-3.4-.33-4.21-1.93-.94-1.87-.52-3.66,1.27-5.06.56-.44,1.21-.79,1.86-1.1,1.7-.8,3.42.02,3.9,1.87.18.69.27,1.41.36,1.92Z"/>
      <path class="cls-1" d="M661.71,1421.58c-3.89,2.78-4.73,2.91-6.95,1.18-1.95-1.52-1.7-4.2.49-5.29,2.13-1.06,4.13-.57,5.54,1.55.5.75.64,1.74.92,2.57Z"/>
      <path class="cls-1" d="M240.98,1006.76c1.76-2.47,2.53-3.89,3.63-4.96.53-.51,1.8-.72,2.53-.47,1.64.56,1.82,2.18,1.49,3.57-.17.73-1.13,1.62-1.87,1.78-1.34.29-2.78.08-5.77.08Z"/>
      <path class="cls-1" d="M640.26,214.23c1.51.02,2.76,1.26,2.72,2.71-.06,2.03-1.78,3.54-3.84,3.24-1.44-.21-1.86-1.29-1.79-2.62.12-2.13,1.18-3.35,2.9-3.33Z"/>
      <path class="cls-1" d="M672.92,1372.45v4.8c-1.25.07-2.35.27-3.41.15-1.26-.15-2.27-.99-2.1-2.3.1-.74.89-1.66,1.61-1.99.97-.44,2.17-.4,3.9-.66Z"/>
      <path class="cls-1" d="M208.23,1092.42c2.29-3.65,4.56-7.31,6.91-10.93.47-.72,1.22-1.25,2.48-2.48-2.54,6.72-5.6,10.82-9.54,13.26,0,0,.16.15.16.15Z"/>
      <path class="cls-1" d="M782.85,836.27c-.45-.55-1.51-1.29-1.75-2.24-.39-1.56,1.5-3.4,3.08-3.17,1.38.2,1.98,1.27,1.96,2.61-.02,1.58-1.22,2.78-3.29,2.79Z"/>
      <path class="cls-1" d="M662.13,1444.77c-.24,1.48-1.88,3.17-3.42,3.21-.52.01-1.27-.64-1.54-1.18-.61-1.24-.15-2.59.94-3.11.93-.44,2.23-.19,3.35-.08.26.03.44.76.66,1.16Z"/>
      <path class="cls-1" d="M669.22,1448.61c-1.75.02-3.08-.99-2.98-2.27.12-1.56,1.83-3.06,3.44-2.87,1.37.16,1.93,1.17,2.03,2.47.12,1.66-.8,2.64-2.49,2.66Z"/>
      <path class="cls-1" d="M349.89,935.14c.48.85,1.38,1.92,1.7,3.14.34,1.33-1.37,2.47-2.97,2.11-1.27-.29-2.18-1.01-2.05-2.48.13-1.49,1.56-2.93,3.32-2.78Z"/>
      <path class="cls-1" d="M668.07,140.47c1.68-.57,3.23-.9,3.83.78.32.89.03,2.29-.5,3.14-.81,1.31-2.9.87-3.28-.67-.26-1.05-.05-2.22-.05-3.25Z"/>
      <path class="cls-1" d="M238.01,1055.58c-.06,1.57-1.84,3.19-3.4,3.1-1.15-.07-2.1-1.71-1.88-3.42.17-1.3.81-2.26,2.31-2.2,1.7.07,3.01,1.2,2.96,2.52Z"/>
      <path class="cls-1" d="M735.46,1412.78c-.91-1.01-2-1.74-1.89-2.19.23-1,.9-2.06,1.7-2.7.71-.57,2.62.91,2.33,1.88-.28.95-1.18,1.71-2.14,3.01Z"/>
      <path class="cls-1" d="M707.62,1362.25c1.98-.31,3.06.59,3.4,2.35.2,1.06-.18,1.92-1.32,2.06-1.51.19-2.79-.83-2.83-2.39-.02-.75.55-1.52.75-2.02Z"/>
      <path class="cls-1" d="M307.2,972.9c-1.61.74-2.54,1.37-3.53,1.48-.3.03-1.21-1.55-1.02-2.13.22-.67,1.33-1.45,2.05-1.45.65,0,1.28,1.02,2.5,2.09Z"/>
      <path class="cls-1" d="M285.95,971.87c.79,1.33,1.4,1.98,1.52,2.72.06.37-.91,1.34-1.13,1.26-.72-.26-1.67-.77-1.85-1.39-.14-.51.68-1.3,1.46-2.59Z"/>
      <path class="cls-1" d="M445.24,200.47q2.37-3.09,4.91-3.2c-1.12,2.1-2.32,3.48-4.91,3.2Z"/>
      <path class="cls-1" d="M797.74,792.24c-.26-.87-.51-1.74-.85-2.88,1.55.47,2.87.87,4.39,1.33-.65,2.37-2.13,1.98-3.68,1.4l.14.15Z"/>
      <path class="cls-1" d="M314.88,940.56c-1.43,1.26-2.13,2.15-3.03,2.51-.31.12-1.66-1.11-1.62-1.66.05-.71.9-1.66,1.62-1.92.57-.21,1.46.48,3.03,1.08Z"/>
      <path class="cls-1" d="M813.56,788.84c-2.17.8-3.62.08-4.63-1.74-.1-.18.49-1.05.62-1.02,1.54.38,3.23.62,4.01,2.76Z"/>
      <path class="cls-1" d="M538.78,1316.97c.97-1.49,2.51-.53,3.75-.82.17-.04.7.65.71,1.02.01.3-.45.85-.77.9-1.36.23-2.82.55-3.68-1.11Z"/>
      <path class="cls-1" d="M646.55,167.25c-.67-.56-1.37-.88-1.61-1.42-.23-.52-.11-1.29.1-1.88.08-.24.98-.49,1.15-.34.45.41.93,1.01.99,1.58.06.59-.35,1.22-.63,2.05Z"/>
      <path class="cls-1" d="M530.18,155.78s.23-.25.23-.25c-1.22.22-2.45.45-3.67.67l.19.18c-.68-1.56-.5-2.98,1.34-3.29,2.06-.35,2.05,1.23,1.91,2.69Z"/>
      <path class="cls-1" d="M306.01,933.12c-.7-.89-1.1-1.39-1.5-1.89.69-.47,1.32-1.09,2.08-1.32.26-.08,1.26,1.06,1.15,1.27-.33.68-1.01,1.18-1.73,1.93Z"/>
      <path class="cls-1" d="M705,1413.8c-.77-.48-1.49-.85-1.46-.93.31-.81.74-1.56,1.14-2.33.38.22,1.1.5,1.08.66-.14.85-.46,1.66-.76,2.6Z"/>
      <path class="cls-1" d="M737.15,1283.01c.63.78,1.04,1.28,1.45,1.78-.65.51-1.31,1.03-1.96,1.54-.27-.6-.77-1.22-.73-1.81.03-.47.7-.9,1.25-1.52Z"/>
      <path class="cls-1" d="M585.38,37.1c.76,1.1,1.4,1.69,1.56,2.38.1.45-.49,1.06-.77,1.6-.63-.59-1.4-1.09-1.82-1.8-.16-.28.45-1.02,1.02-2.19Z"/>
      <path class="cls-1" d="M220.71,1038.28c.78-.66,1.23-1.37,1.74-1.42,1.14-.1,2.07,1.35,1.61,2.6-.17.46-1.32,1.07-1.55.92-.68-.46-1.13-1.27-1.8-2.1Z"/>
      <path class="cls-1" d="M809.74,774.67c.12-1.17,0-2.11.36-2.82.2-.4,1.16-.55,1.78-.56.33,0,.98.55.95.79-.08.6-.32,1.32-.75,1.7-.47.41-1.23.5-2.35.9Z"/>
      <path class="cls-1" d="M447.27,109.82c-1.13.27-1.75.55-2.34.5-.39-.03-.74-.52-1.12-.8.49-.35.98-.99,1.46-.98.52.01,1.03.62,2,1.28Z"/>
      <path class="cls-1" d="M1034.93,207.28c-.67-.43-1.17-.76-1.68-1.09.55-.57,1.09-1.13,1.64-1.7.42.42,1.16.82,1.18,1.27.03.44-.66.92-1.14,1.52Z"/>
      <path class="cls-1" d="M780.14,822.16c-.26-.98-.66-1.65-.49-2.08.14-.37.95-.53,1.49-.63.11-.02.58.81.47,1.05-.25.52-.77.9-1.47,1.66Z"/>
      <path class="cls-1" d="M573,64.8c.39.54.75,1.03,1.1,1.53-.35.13-.78.46-1.02.36-.35-.15-.67-.59-.77-.96-.06-.19.38-.52.69-.92Z"/>
      <path class="cls-1" d="M829.78,760.44c-.51.51-1.01,1.1-1.06,1.06-.67-.48-1.27-1.04-1.89-1.58.44-.14.93-.46,1.32-.37.56.13,1.05.56,1.63.9Z"/>
      <path class="cls-1" d="M838.53,1175.17c2.47-1.54,4.94-1.72,7.4.04,0,0,.06-.18.06-.18-2.5-.02-5.01-.04-7.51-.05l.06.19Z"/>
      <path class="cls-1" d="M518.84,171.92c-1.06.15-2.12.3-3.18.45,0-.27,0-.54,0-.81,1.04.16,2.08.31,3.12.47l.06-.11Z"/>
      <path class="cls-1" d="M800.75,797.8c-.29-.25-.57-.49-.85-.74.27-.25.52-.53.82-.73.05-.04.48.28.46.38-.08.38-.28.73-.43,1.09Z"/>
      <path class="cls-1" d="M593.98,1251.76c-.11.16-.22.33-.33.49-.26-.23-.55-.44-.77-.71-.04-.05.19-.32.3-.48.27.23.53.47.8.7Z"/>
      <path class="cls-1" d="M590.87,1412.41c-.43.22-.81.55-1.19.55-.23,0-.46-.52-.7-.81.38-.18.77-.49,1.15-.48.25,0,.49.47.74.74Z"/>
      <path class="cls-1" d="M970.58,123.77c.27.31.54.62.82.94-.49.32-.98.63-1.47.95-.15-.41-.51-.88-.41-1.2.1-.31.68-.46,1.06-.69Z"/>
      <path class="cls-1" d="M471.71,186.31c-.2.41-.3.97-.63,1.17-.23.14-.76-.23-1.15-.37.2-.4.31-.96.63-1.14.24-.14.76.21,1.15.35Z"/>
      <path class="cls-1" d="M311.97,955.65c-.29.25-.57.5-.86.75-.21-.28-.43-.55-.64-.83.16-.12.35-.38.48-.35.35.08.68.27,1.02.42Z"/>
      <path class="cls-1" d="M1017.52,226.55c-.3-.24-.59-.49-.89-.73.26-.25.51-.52.8-.73.04-.03.43.25.42.35-.05.38-.21.74-.33,1.11Z"/>
      <path class="cls-1" d="M296.29,970.26c-.07.18-.15.37-.22.55-.3-.15-.6-.29-.9-.44.27-.2.54-.4.81-.6.1.16.21.33.31.49Z"/>
      <path class="cls-1" d="M811.17,927.23h-2.66c-.03-.22-.06-.45-.09-.67.93-.2,1.85-.41,2.78-.61,0,0-.25-.17-.25-.17.01.55.02,1.1.03,1.65l.19-.2Z"/>
      <path class="cls-1" d="M565.34,1322.97c-.33-.21-.65-.43-.98-.64.28-.23.54-.5.85-.66.11-.06.53.21.52.25-.09.36-.25.7-.39,1.04Z"/>
      <path class="cls-1" d="M518.78,172.03c.16-.8.32-1.6.48-2.4.05,0,.1.02.14.03-.19.72-.39,1.45-.57,2.22,0,.04-.06.16-.06.16Z"/>
      <path class="cls-1" d="M526.74,156.2c.08.42.28.88.18,1.26-.08.3-.53.51-.81.76-.07-.36-.31-.81-.17-1.05.19-.34.66-.52,1-.78,0,0-.2-.19-.2-.19Z"/>
      <path class="cls-1" d="M797.6,792.09c.14.69.37,1.39.38,2.08,0,.32-.44.64-.69.96-.2-.34-.62-.75-.54-1,.22-.66.66-1.25,1-1.88-.01-.01-.15-.17-.15-.17Z"/>
      <path class="cls-1" d="M416.63,131.94c.15-.35.31-.7.46-1.05.34.16.92.28.96.49.06.36-.22.78-.36,1.17-.35-.2-.7-.4-1.06-.61Z"/>
      <path class="cls-1" d="M537.6,131.05c-.19.06-.42.2-.56.14-.14-.06-.18-.33-.26-.51.18-.06.42-.21.54-.15.15.08.19.33.29.51Z"/>
      <path class="cls-1" d="M840.46,743.53c-.25.24-.5.47-.74.7-.2-.29-.43-.57-.56-.88-.04-.09.31-.46.35-.45.34.18.64.41.96.63Z"/>
      <path class="cls-1" d="M821.82,738.89s-.08.03-.08.03c.14.39.42.79.39,1.17-.02.32-.39.62-.61.93-.13-.38-.39-.78-.34-1.13.05-.36.42-.67.64-1Z"/>
      <path class="cls-1" d="M839.14,728.84c-.11.13-.22.36-.32.36-.17,0-.33-.16-.5-.26.18-.2.35-.4.53-.59.1.16.19.33.29.49Z"/>
      <path class="cls-1" d="M940.7,869.98c-1.68.2-3.36.4-5.05.6l.19.2c1.45-1.55,3.15-1.43,4.97-.72.03.03-.11-.09-.11-.09Z"/>
      <path class="cls-1" d="M1073.94,1007.83c.85-.04,1.7-.07,2.55-.11-.01.16-.03.33-.04.49-.85-.13-1.71-.26-2.59-.41-.03-.02.09.02.09.02Z"/>
      <path class="cls-1" d="M806.58,782.51c-.25.29-.5.59-.78.84-.03.03-.28-.18-.43-.28.46-.12.92-.25,1.39-.37l-.17-.18Z"/>
      <path class="cls-1" d="M796.37,784.89c-.2.1-.41.21-.61.31-.13-.37-.3-.73-.36-1.11-.01-.09.36-.24.55-.36.14.38.28.77.42,1.15Z"/>
      <path class="cls-1" d="M806.75,782.69c.23-.37.45-.74.68-1.11-.28.31-.57.61-.85.92,0,0,.17.19.17.19Z"/>
      <path class="cls-1" d="M885.49,949.82c-.17.06-.34.17-.5.15-.14-.02-.26-.19-.39-.3.17-.05.34-.17.5-.15.14.02.26.19.39.3Z"/>
      <path class="cls-1" d="M836.5,745.21c-.03.17,0,.4-.09.48-.12.1-.35.08-.53.11.04-.27.09-.54.13-.81.17.07.33.14.5.22Z"/>
      <polygon class="cls-1" points="203.82 1027.8 204.31 1028.03 203.78 1028.18 203.82 1027.8"/>
      <path class="cls-1" d="M1034.01,222.08c.05.18.09.35.14.53-.26-.13-.51-.25-.77-.38.21-.05.42-.1.63-.15Z"/>
      <path class="cls-1" d="M1005.16,180.61c-.18.05-.35.11-.53.16-.05-.15-.09-.3-.14-.46.18-.05.35-.15.53-.14.05,0,.1.28.14.43Z"/>
      <path class="cls-1" d="M1020.82,228.67c-.07.2-.13.39-.2.59-.21-.21-.44-.41-.6-.65-.02-.03.27-.28.42-.43l.39.5Z"/>
      <path class="cls-1" d="M912.97,134.72c.16.06.46.11.46.17,0,.19-.1.39-.16.58-.17-.05-.34-.11-.51-.16.07-.2.14-.39.2-.59Z"/>
      <path class="cls-1" d="M559.59,1249.9c.16.35.35.69.45,1.06.02.07-.31.24-.48.37-.15-.34-.35-.68-.43-1.04-.02-.08.3-.25.47-.38Z"/>
      <polygon class="cls-1" points="433.53 127.69 434 127.69 433.77 128.2 433.53 127.69"/>
      <polygon class="cls-1" points="598.8 47.68 598.93 48.17 598.53 48.1 598.8 47.68"/>
      <polygon class="cls-1" points="838.47 821.22 838.46 820.73 838.96 820.97 838.47 821.22"/>
      <polygon class="cls-1" points="591.53 1414.97 591.7 1415.45 591.28 1415.4 591.53 1414.97"/>
      <polygon class="cls-1" points="574.15 1257.97 574.03 1257.49 574.4 1257.56 574.15 1257.97"/>
      <path class="cls-1" d="M935.65,870.58c-.2.36-.37.74-.61,1.07-.05.07-.34-.03-.52-.06.44-.27.88-.54,1.32-.81,0,0-.19-.2-.19-.2Z"/>
      <path class="cls-1" d="M658.28,457.23c-3.67-4.59-3.96-6.22-2.44-11.06,2.37,3.56,2.47,3.98,2.44,11.06Z"/>
      <path class="cls-1" d="M607.39,890.61c3.18,2.75,1.32,5.35,1.04,9.06q-2.56-3.64-1.04-9.06Z"/>
      <path class="cls-1" d="M400.29,925.98c-.23-.34-.64-.67-.66-1.02-.05-1.18.03-2.38,1.6-2.58.18-.02.46.15.56.31.83,1.31-.28,2.08-.89,2.97-.12.17-.4.22-.61.32Z"/>
      <path class="cls-1" d="M906.7,209.39c3.4-.06,4.78,1.35,4.62,3.99-.06.95-.2,1.91-.43,2.83-.59,2.34-2.21,3.61-4.62,3.73-2.39.12-4.28-1.12-4.97-3.27-.83-2.59-.09-5.09,2.1-6.23,1.23-.64,2.68-.87,3.29-1.05Z"/>
      <path class="cls-1" d="M907.5,224.02c2.09.45,3.37,2.43,2.81,3.84-.45,1.13-1.38,1.93-2.72,1.63-1.3-.29-2.32-1.94-1.84-3.27.33-.91,1.26-1.61,1.75-2.2Z"/>
      <path class="cls-1" d="M899.85,198.54c-.27.2-.54.4-.81.6-.1-.16-.32-.44-.29-.47.24-.24.52-.43.79-.63.1.17.21.33.31.5Z"/>
      <path class="cls-1" d="M922.04,226.64c-.35.17-.71.34-1.06.51-.19-.46-.38-.92-.57-1.38.38-.08.87-.34,1.12-.2.28.16.35.69.51,1.06Z"/>
      <polygon class="cls-1" points="918.97 195.03 918.76 194.44 919.26 194.48 918.97 195.03"/>
      <path class="cls-1" d="M271.85,777.84c1.86-1.57,3.71-3.13,5.57-4.7l-.11-.2c-.13.82.05,1.99-.43,2.41-1.36,1.18-3,2.05-4.52,3.04-.17-.18-.34-.37-.5-.55Z"/>
      <path class="cls-1" d="M277.41,773.14c.42-.15.83-.34,1.26-.44.14-.03.33.17.5.26-.26.26-.55.75-.76.72-.38-.06-.71-.44-1.08-.71-.02-.03.09.17.09.17Z"/>
    </g>
  </g>
</svg>