<?xml version="1.0" encoding="UTF-8"?>
<svg id="Camada_2" data-name="Camada 2" xmlns="http://www.w3.org/2000/svg" viewBox="0 0 234.22 284.95">
  <defs>
    <style>
      .cls-1 {
        fill: #3f3f3f;
      }
    </style>
  </defs>
  <g id="Laag_2" data-name="Laag 2">
    <path class="cls-1" d="M218.54,242.95c4.89-12.51,7.53-25.93,7.53-39.77,0-19.46-5.13-37.73-14.08-53.57,26.45-36.85,22.32-72.61,21.51-77.95-2.47-22.06-15.58-51.06-63.7-64.8C143.68-.59,118.77-.03,117.1.03c-1.7-.06-26.61-.61-52.69,6.84C16.29,20.61,3.18,49.61.71,71.67c-.8,5.32-4.87,40.75,21.15,77.41-9.14,15.97-14.39,34.43-14.39,54.11,0,29.3,11.45,56.81,32.25,77.49.03.03.06.07.09.1,0,0,0,.01.02.02.09.09.19.14.28.22.59.56,1.22,1.09,1.9,1.54.33.22.68.37,1.02.55.48.26.94.55,1.45.75.43.18.89.28,1.34.42.44.13.87.3,1.34.39.71.14,1.43.19,2.15.22.21,0,.41.06.63.06h133.71c.94,0,1.87-.1,2.8-.28.43-.08.83-.24,1.24-.37.48-.14.96-.25,1.42-.44.49-.2.93-.48,1.4-.73.35-.19.72-.35,1.06-.58.67-.45,1.29-.97,1.87-1.52.09-.09.2-.15.3-.24,0,0,0-.01.02-.02.03-.03.06-.07.09-.1,10.9-10.84,19.16-23.59,24.63-37.46.03-.09.06-.17.09-.26ZM177.33,256.29H56.2c-4.02-4.58-7.54-9.49-10.39-14.74,9.47-7.6,31.15-20.24,70.95-20.24s61.57,12.68,70.96,20.22c-2.85,5.26-6.37,10.18-10.4,14.76ZM116.77,192.64c-38.65,0-64.33,10.55-79.98,20.41-.4-3.25-.66-6.54-.66-9.86,0-44.47,36.17-80.64,80.64-80.64s80.64,36.17,80.64,80.64c0,3.33-.27,6.61-.66,9.86-15.64-9.86-41.32-20.41-79.98-20.41ZM80.47,83.17c3.85-6.87,17.08-10.81,36.3-10.81.12,0,.22-.03.34-.03.12,0,.22.03.34.03,19.18,0,32.41,3.93,36.28,10.78,2.54,4.49,1.71,11.16-.1,17.16-11.52-4.14-23.93-6.41-36.86-6.41s-24.9,2.2-36.25,6.2c-1.75-5.91-2.54-12.47-.05-16.92ZM29.03,76.09c.06-.33.11-.66.14-1,5.15-48.08,86.05-46.45,87.17-46.4.26,0,.51-.05.77-.06.26.01.52.07.78.06.8-.03,81.97-1.99,87.15,46.4.04.34.08.67.14,1,.05.27,3.46,23.32-11.69,49.34-4.35-4.29-9.07-8.21-14.09-11.74,4.38-11.56,8.05-29-.65-44.53-9.47-16.9-30.1-25.47-61.31-25.47-.12,0-.22.03-.34.03-.12,0-.22-.03-.34-.03-31.21,0-51.84,8.57-61.31,25.47-8.6,15.35-5.11,32.59-.8,44.15-5.06,3.51-9.81,7.43-14.2,11.72-14.88-25.67-11.59-47.94-11.43-48.95Z"/>
  </g>
</svg>