<?xml version="1.0" encoding="UTF-8"?>
<svg id="Camada_2" data-name="Camada 2" xmlns="http://www.w3.org/2000/svg" viewBox="0 0 215.36 320.1">
  <defs>
    <style>
      .cls-1 {
        fill: #1a323d;
      }
    </style>
  </defs>
  <g id="Layer_1" data-name="Layer 1">
    <g>
      <path class="cls-1" d="M162.79,56.32H21.02c-11.61,0-21.02,9.41-21.02,21.02v165.42c0,11.61,9.41,21.02,21.02,21.02h141.77c11.61,0,21.02-9.41,21.02-21.02V77.34c0-11.61-9.41-21.02-21.02-21.02ZM173.3,242.76c0,5.8-4.72,10.51-10.51,10.51H21.02c-5.8,0-10.51-4.72-10.51-10.51V77.34c0-5.8,4.72-10.51,10.51-10.51h141.77c5.8,0,10.51,4.72,10.51,10.51v165.42Z"/>
      <polygon class="cls-1" points="131.31 0 52.51 0 31.48 45.8 152.33 45.8 131.31 0"/>
      <polygon class="cls-1" points="52.51 320.1 131.31 320.1 152.33 274.29 31.48 274.29 52.51 320.1"/>
      <rect class="cls-1" x="189.63" y="133.94" width="25.74" height="52.22" rx="12.61" ry="12.61"/>
      <path class="cls-1" d="M150.09,197.05h-19.49l-19.11-49.93c-.62-1.62-2.17-2.69-3.9-2.7h-.03c-1.72,0-3.27,1.05-3.91,2.65l-22.02,55.52-12.74-29.14c-.66-1.51-2.14-2.5-3.79-2.52-1.64-.03-3.16.92-3.86,2.41l-11.17,23.7h-16.36c-2.32,0-4.2,1.88-4.2,4.2s1.88,4.2,4.2,4.2h19.02c1.63,0,3.11-.94,3.8-2.41l8.36-17.74,13.08,29.9c.67,1.53,2.18,2.52,3.85,2.52.02,0,.05,0,.07,0,1.7-.03,3.21-1.08,3.84-2.65l21.76-54.87,16.28,42.55c.62,1.63,2.18,2.7,3.93,2.7h22.38c2.32,0,4.2-1.88,4.2-4.2s-1.88-4.2-4.2-4.2Z"/>
      <path class="cls-1" d="M89.71,122.57c1.23,1.18,3.17,1.18,4.4,0,5.14-4.9,17.48-17.75,17.48-28.24,0-5.43-4.41-9.84-9.84-9.84-4.67,0-8.58,2.74-9.59,6.95-.17,0-.35-.01-.51-.04-1.02-4.19-4.92-6.91-9.58-6.91-5.43,0-9.84,4.41-9.84,9.84,0,10.49,12.34,23.34,17.48,28.24Z"/>
    </g>
  </g>
</svg>