<?xml version="1.0" encoding="UTF-8"?>
<svg id="Camada_2" data-name="Camada 2" xmlns="http://www.w3.org/2000/svg" viewBox="0 0 231.99 355.19">
  <defs>
    <style>
      .cls-1 {
        fill: #1a323d;
      }
    </style>
  </defs>
  <g id="Layer_1" data-name="Layer 1">
    <g>
      <path class="cls-1" d="M194.45,28.81h-3.36v8.04c0,.67-.02,1.33-.06,2h3.41c15.17,0,27.51,12.34,27.51,27.51v251.29c0,15.17-12.34,27.51-27.51,27.51H37.55c-15.17,0-27.51-12.34-27.51-27.51V66.35c0-15.17,12.34-27.51,27.51-27.51h3.41c-.04-.66-.06-1.33-.06-2v-8.04h-3.36C16.84,28.81,0,45.65,0,66.35v251.29c0,20.7,16.84,37.55,37.55,37.55h156.9c20.7,0,37.55-16.84,37.55-37.55V66.35c0-20.7-16.84-37.55-37.55-37.55Z"/>
      <path class="cls-1" d="M77.73,59.62h76.54c14.73,0,26.79-12.05,26.79-26.79v-6.05h-38.27c0-14.79-11.99-26.79-26.79-26.79s-26.79,11.99-26.79,26.79h-38.27v6.05c0,14.73,12.05,26.79,26.79,26.79Z"/>
      <path class="cls-1" d="M57.43,97.84c0,3.03,2.46,5.49,5.49,5.49s5.49-2.46,5.49-5.49-2.46-5.49-5.49-5.49-5.49,2.46-5.49,5.49Z"/>
      <path class="cls-1" d="M48.66,138.48c.37,0,.75-.08,1.11-.24l9.02-4.08c.72-.33,1.27-.95,1.49-1.72l1.85-6.38h1.88l3.53,8.06.53,13.05c.06,1.46,1.26,2.6,2.71,2.6.04,0,.07,0,.11,0,1.5-.06,2.66-1.32,2.6-2.82l-.55-13.56c-.01-.34-.09-.67-.23-.98l-4.34-9.92c.02-.17.05-.34.05-.51v-5.61l9.34,3.01c.23.07.46.11.69.11.95,0,1.84-.61,2.15-1.57.38-1.19-.27-2.46-1.46-2.84l-10.35-3.34-.38-.57v-1.9c0-2.71-2.22-4.93-4.93-4.93h-1.13c-.71,0-1.39.16-2,.43-.26.06-.52.16-.76.32l-7.16,4.77c-.56.37-.92.98-.99,1.65l-1.19,11.46c-.13,1.24.77,2.35,2.01,2.48.08,0,.16.01.24.01,1.14,0,2.12-.86,2.25-2.03l1.08-10.4,1.6-1.07v10.02c0,.21.03.41.06.62l-2.07,7.13-7.88,3.56c-1.36.62-1.97,2.22-1.35,3.59.45,1,1.44,1.59,2.47,1.59Z"/>
      <path class="cls-1" d="M62.92,171.06c-3.03,0-5.49,2.46-5.49,5.49s2.46,5.49,5.49,5.49,5.49-2.46,5.49-5.49-2.46-5.49-5.49-5.49Z"/>
      <path class="cls-1" d="M48.66,217.19c.37,0,.75-.08,1.11-.24l9.02-4.08c.72-.33,1.27-.95,1.49-1.72l1.85-6.38h1.88l3.53,8.06.53,13.05c.06,1.46,1.26,2.6,2.71,2.6.04,0,.07,0,.11,0,1.5-.06,2.66-1.32,2.6-2.82l-.55-13.56c-.01-.34-.09-.67-.23-.98l-4.34-9.92c.02-.17.05-.34.05-.51v-5.61l9.34,3.01c.23.07.46.11.69.11.95,0,1.84-.61,2.15-1.57.38-1.19-.27-2.46-1.46-2.84l-10.35-3.34-.38-.57v-1.9c0-2.71-2.22-4.93-4.93-4.93h-1.13c-.71,0-1.39.16-2,.43-.26.06-.52.16-.76.32l-7.16,4.77c-.56.37-.92.98-.99,1.65l-1.19,11.46c-.13,1.24.77,2.35,2.01,2.48.08,0,.16.01.24.01,1.14,0,2.12-.86,2.25-2.03l1.08-10.4,1.6-1.07v10.02c0,.21.03.41.06.62l-2.07,7.13-7.88,3.56c-1.36.62-1.97,2.22-1.35,3.59.45,1,1.44,1.59,2.47,1.59Z"/>
      <path class="cls-1" d="M62.92,249.77c-3.03,0-5.49,2.46-5.49,5.49s2.46,5.49,5.49,5.49,5.49-2.46,5.49-5.49-2.46-5.49-5.49-5.49Z"/>
      <path class="cls-1" d="M48.66,295.9c.37,0,.75-.08,1.11-.24l9.02-4.08c.72-.33,1.27-.95,1.49-1.72l1.85-6.38h1.88l3.53,8.06.53,13.05c.06,1.46,1.26,2.6,2.71,2.6.04,0,.07,0,.11,0,1.5-.06,2.66-1.32,2.6-2.82l-.55-13.56c-.01-.34-.09-.67-.23-.98l-4.34-9.92c.02-.17.05-.34.05-.51v-5.61l9.34,3.01c.23.07.46.11.69.11.95,0,1.84-.61,2.15-1.57.38-1.19-.27-2.46-1.46-2.84l-10.35-3.34-.38-.57v-1.9c0-2.71-2.22-4.93-4.93-4.93h-1.13c-.71,0-1.39.16-2,.43-.26.06-.52.16-.76.32l-7.16,4.77c-.56.37-.92.98-.99,1.65l-1.19,11.46c-.13,1.24.77,2.35,2.01,2.48.08,0,.16.01.24.01,1.14,0,2.12-.86,2.25-2.03l1.08-10.4,1.6-1.07v10.02c0,.21.03.41.06.62l-2.07,7.13-7.88,3.56c-1.36.62-1.97,2.22-1.35,3.59.45,1,1.44,1.59,2.47,1.59Z"/>
      <path class="cls-1" d="M155.01,101.01l2.41-3.68h-30.92c-1.02,0-1.84.82-1.84,1.84v35.29c0,1.02.82,1.84,1.84,1.84h35.29c1.02,0,1.84-.82,1.84-1.84v-28.13l-3.68,5.62v20.67h-31.61v-31.61h26.67Z"/>
      <path class="cls-1" d="M170.59,86.47c-.85-.56-1.99-.32-2.55.53l-23.27,35.54-9.27-9.62c-.71-.73-1.87-.75-2.6-.05-.73.71-.75,1.87-.05,2.6l10.87,11.28c.35.36.83.56,1.33.56.06,0,.11,0,.17,0,.56-.05,1.06-.36,1.37-.82l24.54-37.48c.56-.85.32-1.99-.53-2.55Z"/>
      <path class="cls-1" d="M124.66,215.23c0,1.02.82,1.84,1.84,1.84h35.29c1.02,0,1.84-.82,1.84-1.84v-28.13l-3.68,5.62v20.67h-31.61v-31.61h26.67l2.41-3.68h-30.92c-1.02,0-1.84.82-1.84,1.84v35.29Z"/>
      <path class="cls-1" d="M170.59,167.23c-.85-.56-1.99-.32-2.55.53l-23.27,35.55-9.27-9.62c-.71-.73-1.87-.75-2.6-.05s-.75,1.87-.05,2.6l10.87,11.28c.35.36.83.56,1.33.56.06,0,.11,0,.17,0,.56-.05,1.06-.36,1.37-.82l24.54-37.48c.56-.85.32-1.99-.53-2.55Z"/>
      <path class="cls-1" d="M124.66,295.99c0,1.02.82,1.84,1.84,1.84h35.29c1.02,0,1.84-.82,1.84-1.84v-28.13l-3.68,5.62v20.67h-31.61v-31.61h26.67l2.41-3.68h-30.92c-1.02,0-1.84.82-1.84,1.84v35.29Z"/>
      <path class="cls-1" d="M170.59,248c-.85-.56-1.99-.32-2.55.53l-23.27,35.55-9.27-9.62c-.71-.73-1.87-.75-2.6-.05-.73.71-.75,1.87-.05,2.6l10.87,11.28c.35.36.83.56,1.33.56.06,0,.11,0,.17,0,.56-.05,1.06-.36,1.37-.82l24.54-37.48c.56-.85.32-1.99-.53-2.55Z"/>
    </g>
  </g>
</svg>