<?xml version="1.0" encoding="UTF-8"?>
<svg id="Camada_2" data-name="Camada 2" xmlns="http://www.w3.org/2000/svg" viewBox="0 0 321.39 284.48">
  <defs>
    <style>
      .cls-1 {
        fill: #1a323d;
      }
    </style>
  </defs>
  <g id="Layer_1" data-name="Layer 1">
    <g>
      <path class="cls-1" d="M266.53,109.01c9.36,0,16.95-7.59,16.95-16.95s-7.59-16.95-16.95-16.95-16.95,7.59-16.95,16.95,7.59,16.95,16.95,16.95Z"/>
      <path class="cls-1" d="M316.56,145.27l-31.92-10.3-1.17-1.76v-5.87c0-8.37-6.84-15.21-15.21-15.21h-3.47c-2.2,0-4.28.48-6.17,1.33-.81.18-1.61.49-2.35.98l-22.1,14.72c-1.73,1.15-2.85,3.01-3.07,5.08l-3.68,35.35c-.4,3.83,2.38,7.26,6.21,7.65.25.02.49.04.73.04,3.53,0,6.55-2.66,6.93-6.25l3.34-32.09,4.95-3.29v30.9c0,.65.1,1.27.19,1.9l-6.38,22.01-24.3,10.99c-4.21,1.9-6.08,6.86-4.18,11.07,1.4,3.09,4.44,4.92,7.63,4.92,1.15,0,2.32-.24,3.44-.74l27.82-12.58c2.23-1.01,3.91-2.94,4.59-5.29l5.7-19.67h5.79l10.88,24.86,1.62,40.26c.18,4.5,3.89,8.03,8.35,8.03.11,0,.23,0,.34,0,4.62-.19,8.21-4.08,8.02-8.69l-1.69-41.83c-.04-1.04-.28-2.06-.7-3.02l-13.4-30.6c.07-.53.16-1.04.16-1.59v-17.31l28.81,9.29c.71.23,1.43.34,2.14.34,2.94,0,5.68-1.88,6.63-4.83,1.18-3.66-.83-7.59-4.49-8.77Z"/>
      <path class="cls-1" d="M141.23.36c-3.23-.24-6.51-.36-9.76-.36v11.22c2.97,0,5.98.11,8.94.33l.82-11.19Z"/>
      <path class="cls-1" d="M182.02,10.07c-6.46-2.69-13.19-4.88-20-6.5l-2.6,10.92c6.22,1.48,12.37,3.48,18.28,5.94l4.32-10.36Z"/>
      <path class="cls-1" d="M200.71,19.69l-5.92,9.53c5.43,3.37,10.64,7.21,15.48,11.41l7.36-8.47c-5.29-4.59-10.98-8.79-16.92-12.48Z"/>
      <path class="cls-1" d="M238.35,54.89c-1.9-2.64-3.91-5.24-5.98-7.71l-8.61,7.2c1.9,2.27,3.74,4.64,5.48,7.06l9.11-6.55Z"/>
      <path class="cls-1" d="M144.11,251.08c-4.22.45-8.44.67-12.64.67v-.02c-7.95,0-15.72-.78-23.25-2.26-.55-.11-1.1-.22-1.65-.34-.65-.14-1.3-.28-1.94-.42-1.1-.25-2.2-.52-3.29-.8-.47-.12-.94-.25-1.41-.38-.86-.24-1.72-.48-2.58-.73-.44-.13-.88-.26-1.32-.39-1.15-.35-2.29-.73-3.42-1.11-.46-.16-.92-.32-1.38-.49-.81-.29-1.61-.58-2.41-.89-.58-.22-1.16-.44-1.74-.67-.89-.36-1.78-.72-2.66-1.1-.67-.29-1.34-.58-2.01-.88-.37-.17-.75-.34-1.12-.51-28.02-12.92-50.25-36.3-61.67-65.11-.03-.07-.06-.14-.09-.22-.31-.79-.61-1.59-.91-2.39-.06-.17-.13-.34-.19-.51-.26-.71-.51-1.42-.75-2.14-.09-.27-.18-.53-.27-.8-.21-.63-.41-1.25-.61-1.88-.11-.36-.23-.72-.34-1.09-.16-.54-.33-1.08-.48-1.62-.13-.46-.26-.92-.39-1.38-.12-.45-.25-.9-.37-1.35-.15-.55-.29-1.11-.43-1.67-.09-.36-.18-.72-.26-1.08-.16-.65-.31-1.3-.45-1.96-.06-.27-.12-.53-.17-.8-.16-.75-.31-1.49-.46-2.24-.03-.17-.07-.34-.1-.52-.16-.84-.31-1.69-.45-2.54-.01-.07-.02-.14-.04-.21-4.44-26.85.43-54.41,13.44-78,.17-.31.35-.62.52-.93.19-.34.39-.69.59-1.03C48.24,35.4,87.09,11.22,131.47,11.22V0c-24.74,0-47.91,6.87-67.7,18.81l-.02-.03c-19.77,11.88-35.29,28.18-46.06,46.87-.22.38-.44.76-.65,1.14-.19.33-.38.67-.56,1C5.99,86.67,0,108.39,0,131.47c0,7.36.62,14.57,1.78,21.6.01.09.03.17.04.26.15.92.32,1.84.49,2.75.04.19.07.39.11.58.16.82.32,1.63.5,2.44.06.3.13.59.19.89.16.71.32,1.42.49,2.12.1.4.19.8.29,1.2.15.6.31,1.21.46,1.81.13.5.27.99.4,1.49.14.5.28,1,.42,1.49.17.6.35,1.19.53,1.79.12.39.24.79.37,1.18.22.69.44,1.38.67,2.07.1.29.2.58.29.87.27.78.54,1.56.82,2.34.07.19.14.38.21.57.32.87.65,1.74.99,2.6.03.08.07.17.1.25,2.62,6.62,5.81,13.12,9.59,19.43,14.63,24.35,36.28,42.63,61.2,53.25.25.11.5.21.76.32.78.33,1.56.65,2.35.96.39.16.79.31,1.19.46,1.11.43,2.22.84,3.34,1.24.64.23,1.28.46,1.92.67.59.2,1.18.38,1.76.57.6.19,1.21.39,1.81.57.61.19,1.21.37,1.82.54.58.17,1.16.33,1.74.49.64.18,1.28.36,1.92.52.31.08.62.15.94.23,1.66.42,3.32.8,4.99,1.15.21.04.41.09.62.13.98.2,1.96.39,2.94.57.09.02.19.03.28.05,7.58,1.36,15.31,2.07,23.12,2.07,5.79,0,11.61-.39,17.44-1.17l-1.18,22.67,48.55-45.12-66.2-3.29,14.01,15Z"/>
      <circle class="cls-1" cx="137.09" cy="140.83" r="15.34" transform="translate(-27.12 248.81) rotate(-79.1)"/>
      <path class="cls-1" d="M74.22,119.12c-1.88-.33-4.21,4.01-5.22,9.7-1,5.69-.29,10.57,1.58,10.9l44.71,7.88c-.67-2.14-1.03-4.42-1.03-6.78,0-5.19,1.75-9.98,4.68-13.82l-44.72-7.89Z"/>
      <path class="cls-1" d="M137.09,41.24c-3.15,0-5.71,2.56-5.71,5.71v71.78c1.83-.47,3.74-.72,5.71-.72s3.88.25,5.71.72V46.95c0-3.15-2.56-5.71-5.71-5.71Z"/>
    </g>
  </g>
</svg>